<?xml version="1.0" encoding="UTF-8"?>
<svg width="24px" height="288px" viewBox="0 0 24 288" version="1.1" xmlns="http://www.w3.org/2000/svg" xmlns:xlink="http://www.w3.org/1999/xlink">
    <!-- Generator: Sketch 51 (57462) - http://www.bohemiancoding.com/sketch -->
    <title>UIActivityIndicatorViewDefaultSprite</title>
    <desc>Created with Sketch.</desc>
    <defs></defs>
    <g id="UIActivityIndicatorViewDefaultSprite" stroke="none" stroke-width="1" fill="none" fill-rule="evenodd">
        <g id="12" transform="translate(12.000000, 276.000000) rotate(330.000000) translate(-12.000000, -276.000000) translate(0.000000, 264.000000)" fill="#000000" fill-rule="nonzero">
            <path d="M12,0 C12.5522847,-1.01453063e-16 12.9850914,0.44771525 12.9667007,1 L12.8002039,6 C12.7818132,6.55228475 12.4235497,7 12,7 C11.5764503,7 11.2181868,6.55228475 11.1997961,6 L11.0332993,1 C11.0149086,0.44771525 11.4477153,1.01453063e-16 12,0 Z" id="Rectangle" fill-opacity="0.4"></path>
            <path d="M12,17 C12.5522847,17 12.9850914,17.4477153 12.9667007,18 L12.8002039,23 C12.7818132,23.5522847 12.4235497,24 12,24 C11.5764503,24 11.2181868,23.5522847 11.1997961,23 L11.0332993,18 C11.0149086,17.4477153 11.4477153,17 12,17 Z" id="Rectangle-Copy" fill-opacity="0.16" transform="translate(12.000000, 20.500000) scale(1, -1) translate(-12.000000, -20.500000) "></path>
            <path d="M20.5,8.5 C21.0522847,8.5 21.4850914,8.94771525 21.4667007,9.5 L21.3002039,14.5 C21.2818132,15.0522847 20.9235497,15.5 20.5,15.5 C20.0764503,15.5 19.7181868,15.0522847 19.6997961,14.5 L19.5332993,9.5 C19.5149086,8.94771525 19.9477153,8.5 20.5,8.5 Z" id="Rectangle" fill-opacity="0.12" transform="translate(20.500000, 12.000000) rotate(90.000000) translate(-20.500000, -12.000000) "></path>
            <path d="M3.5,8.5 C4.05228475,8.5 4.48509138,8.94771525 4.46670065,9.5 L4.30020393,14.5 C4.28181321,15.0522847 3.9235497,15.5 3.5,15.5 C3.0764503,15.5 2.71818679,15.0522847 2.69979607,14.5 L2.53329935,9.5 C2.51490862,8.94771525 2.94771525,8.5 3.5,8.5 Z" id="Rectangle-Copy" fill-opacity="0.28" transform="translate(3.500000, 12.000000) scale(1, -1) rotate(-90.000000) translate(-3.500000, -12.000000) "></path>
            <path d="M19.3612159,4.25 C19.9135007,4.25 20.3463073,4.69771525 20.3279166,5.25 L20.1614199,10.25 C20.1430291,10.8022847 19.7847656,11.25 19.3612159,11.25 C18.9376662,11.25 18.5794027,10.8022847 18.561012,10.25 L18.3945153,5.25 C18.3761246,4.69771525 18.8089312,4.25 19.3612159,4.25 Z" id="Rectangle" fill-opacity="0.12" transform="translate(19.361216, 7.750000) rotate(60.000000) translate(-19.361216, -7.750000) "></path>
            <path d="M4.63878407,12.75 C5.19106882,12.75 5.62387544,13.1977153 5.60548472,13.75 L5.43898799,18.75 C5.42059727,19.3022847 5.06233377,19.75 4.63878407,19.75 C4.21523436,19.75 3.85697086,19.3022847 3.83858014,18.75 L3.67208341,13.75 C3.65369269,13.1977153 4.08649932,12.75 4.63878407,12.75 Z" id="Rectangle-Copy" fill-opacity="0.24" transform="translate(4.638784, 16.250000) scale(1, -1) rotate(-60.000000) translate(-4.638784, -16.250000) "></path>
            <path d="M16.25,15.8612159 C16.8022847,15.8612159 17.2350914,16.3089312 17.2167007,16.8612159 L17.0502039,21.8612159 C17.0318132,22.4135007 16.6735497,22.8612159 16.25,22.8612159 C15.8264503,22.8612159 15.4681868,22.4135007 15.4497961,21.8612159 L15.2832993,16.8612159 C15.2649086,16.3089312 15.6977153,15.8612159 16.25,15.8612159 Z" id="Rectangle" fill-opacity="0.12" transform="translate(16.250000, 19.361216) rotate(150.000000) translate(-16.250000, -19.361216) "></path>
            <path d="M7.75,1.13878407 C8.30228475,1.13878407 8.73509138,1.58649932 8.71670065,2.13878407 L8.55020393,7.13878407 C8.53181321,7.69106882 8.1735497,8.13878407 7.75,8.13878407 C7.3264503,8.13878407 6.96818679,7.69106882 6.94979607,7.13878407 L6.78329935,2.13878407 C6.76490862,1.58649932 7.19771525,1.13878407 7.75,1.13878407 Z" id="Rectangle-Copy" fill-opacity="0.36" transform="translate(7.750000, 4.638784) scale(1, -1) rotate(-150.000000) translate(-7.750000, -4.638784) "></path>
            <path d="M16.25,1.13878407 C16.8022847,1.13878407 17.2350914,1.58649932 17.2167007,2.13878407 L17.0502039,7.13878407 C17.0318132,7.69106882 16.6735497,8.13878407 16.25,8.13878407 C15.8264503,8.13878407 15.4681868,7.69106882 15.4497961,7.13878407 L15.2832993,2.13878407 C15.2649086,1.58649932 15.6977153,1.13878407 16.25,1.13878407 Z" id="Rectangle" fill-opacity="0.12" transform="translate(16.250000, 4.638784) rotate(30.000000) translate(-16.250000, -4.638784) "></path>
            <path d="M7.75,15.8612159 C8.30228475,15.8612159 8.73509138,16.3089312 8.71670065,16.8612159 L8.55020393,21.8612159 C8.53181321,22.4135007 8.1735497,22.8612159 7.75,22.8612159 C7.3264503,22.8612159 6.96818679,22.4135007 6.94979607,21.8612159 L6.78329935,16.8612159 C6.76490862,16.3089312 7.19771525,15.8612159 7.75,15.8612159 Z" id="Rectangle-Copy" fill-opacity="0.2" transform="translate(7.750000, 19.361216) scale(1, -1) rotate(-30.000000) translate(-7.750000, -19.361216) "></path>
            <path d="M19.3612159,12.75 C19.9135007,12.75 20.3463073,13.1977153 20.3279166,13.75 L20.1614199,18.75 C20.1430291,19.3022847 19.7847656,19.75 19.3612159,19.75 C18.9376662,19.75 18.5794027,19.3022847 18.561012,18.75 L18.3945153,13.75 C18.3761246,13.1977153 18.8089312,12.75 19.3612159,12.75 Z" id="Rectangle" fill-opacity="0.12" transform="translate(19.361216, 16.250000) rotate(120.000000) translate(-19.361216, -16.250000) "></path>
            <path d="M4.63878407,4.25 C5.19106882,4.25 5.62387544,4.69771525 5.60548472,5.25 L5.43898799,10.25 C5.42059727,10.8022847 5.06233377,11.25 4.63878407,11.25 C4.21523436,11.25 3.85697086,10.8022847 3.83858014,10.25 L3.67208341,5.25 C3.65369269,4.69771525 4.08649932,4.25 4.63878407,4.25 Z" id="Rectangle-Copy" fill-opacity="0.32" transform="translate(4.638784, 7.750000) scale(1, -1) rotate(-120.000000) translate(-4.638784, -7.750000) "></path>
        </g>
        <g id="11" transform="translate(12.000000, 252.000000) rotate(300.000000) translate(-12.000000, -252.000000) translate(0.000000, 240.000000)" fill="#000000" fill-rule="nonzero">
            <path d="M12,0 C12.5522847,-1.01453063e-16 12.9850914,0.44771525 12.9667007,1 L12.8002039,6 C12.7818132,6.55228475 12.4235497,7 12,7 C11.5764503,7 11.2181868,6.55228475 11.1997961,6 L11.0332993,1 C11.0149086,0.44771525 11.4477153,1.01453063e-16 12,0 Z" id="Rectangle" fill-opacity="0.4"></path>
            <path d="M12,17 C12.5522847,17 12.9850914,17.4477153 12.9667007,18 L12.8002039,23 C12.7818132,23.5522847 12.4235497,24 12,24 C11.5764503,24 11.2181868,23.5522847 11.1997961,23 L11.0332993,18 C11.0149086,17.4477153 11.4477153,17 12,17 Z" id="Rectangle-Copy" fill-opacity="0.16" transform="translate(12.000000, 20.500000) scale(1, -1) translate(-12.000000, -20.500000) "></path>
            <path d="M20.5,8.5 C21.0522847,8.5 21.4850914,8.94771525 21.4667007,9.5 L21.3002039,14.5 C21.2818132,15.0522847 20.9235497,15.5 20.5,15.5 C20.0764503,15.5 19.7181868,15.0522847 19.6997961,14.5 L19.5332993,9.5 C19.5149086,8.94771525 19.9477153,8.5 20.5,8.5 Z" id="Rectangle" fill-opacity="0.12" transform="translate(20.500000, 12.000000) rotate(90.000000) translate(-20.500000, -12.000000) "></path>
            <path d="M3.5,8.5 C4.05228475,8.5 4.48509138,8.94771525 4.46670065,9.5 L4.30020393,14.5 C4.28181321,15.0522847 3.9235497,15.5 3.5,15.5 C3.0764503,15.5 2.71818679,15.0522847 2.69979607,14.5 L2.53329935,9.5 C2.51490862,8.94771525 2.94771525,8.5 3.5,8.5 Z" id="Rectangle-Copy" fill-opacity="0.28" transform="translate(3.500000, 12.000000) scale(1, -1) rotate(-90.000000) translate(-3.500000, -12.000000) "></path>
            <path d="M19.3612159,4.25 C19.9135007,4.25 20.3463073,4.69771525 20.3279166,5.25 L20.1614199,10.25 C20.1430291,10.8022847 19.7847656,11.25 19.3612159,11.25 C18.9376662,11.25 18.5794027,10.8022847 18.561012,10.25 L18.3945153,5.25 C18.3761246,4.69771525 18.8089312,4.25 19.3612159,4.25 Z" id="Rectangle" fill-opacity="0.12" transform="translate(19.361216, 7.750000) rotate(60.000000) translate(-19.361216, -7.750000) "></path>
            <path d="M4.63878407,12.75 C5.19106882,12.75 5.62387544,13.1977153 5.60548472,13.75 L5.43898799,18.75 C5.42059727,19.3022847 5.06233377,19.75 4.63878407,19.75 C4.21523436,19.75 3.85697086,19.3022847 3.83858014,18.75 L3.67208341,13.75 C3.65369269,13.1977153 4.08649932,12.75 4.63878407,12.75 Z" id="Rectangle-Copy" fill-opacity="0.24" transform="translate(4.638784, 16.250000) scale(1, -1) rotate(-60.000000) translate(-4.638784, -16.250000) "></path>
            <path d="M16.25,15.8612159 C16.8022847,15.8612159 17.2350914,16.3089312 17.2167007,16.8612159 L17.0502039,21.8612159 C17.0318132,22.4135007 16.6735497,22.8612159 16.25,22.8612159 C15.8264503,22.8612159 15.4681868,22.4135007 15.4497961,21.8612159 L15.2832993,16.8612159 C15.2649086,16.3089312 15.6977153,15.8612159 16.25,15.8612159 Z" id="Rectangle" fill-opacity="0.12" transform="translate(16.250000, 19.361216) rotate(150.000000) translate(-16.250000, -19.361216) "></path>
            <path d="M7.75,1.13878407 C8.30228475,1.13878407 8.73509138,1.58649932 8.71670065,2.13878407 L8.55020393,7.13878407 C8.53181321,7.69106882 8.1735497,8.13878407 7.75,8.13878407 C7.3264503,8.13878407 6.96818679,7.69106882 6.94979607,7.13878407 L6.78329935,2.13878407 C6.76490862,1.58649932 7.19771525,1.13878407 7.75,1.13878407 Z" id="Rectangle-Copy" fill-opacity="0.36" transform="translate(7.750000, 4.638784) scale(1, -1) rotate(-150.000000) translate(-7.750000, -4.638784) "></path>
            <path d="M16.25,1.13878407 C16.8022847,1.13878407 17.2350914,1.58649932 17.2167007,2.13878407 L17.0502039,7.13878407 C17.0318132,7.69106882 16.6735497,8.13878407 16.25,8.13878407 C15.8264503,8.13878407 15.4681868,7.69106882 15.4497961,7.13878407 L15.2832993,2.13878407 C15.2649086,1.58649932 15.6977153,1.13878407 16.25,1.13878407 Z" id="Rectangle" fill-opacity="0.12" transform="translate(16.250000, 4.638784) rotate(30.000000) translate(-16.250000, -4.638784) "></path>
            <path d="M7.75,15.8612159 C8.30228475,15.8612159 8.73509138,16.3089312 8.71670065,16.8612159 L8.55020393,21.8612159 C8.53181321,22.4135007 8.1735497,22.8612159 7.75,22.8612159 C7.3264503,22.8612159 6.96818679,22.4135007 6.94979607,21.8612159 L6.78329935,16.8612159 C6.76490862,16.3089312 7.19771525,15.8612159 7.75,15.8612159 Z" id="Rectangle-Copy" fill-opacity="0.2" transform="translate(7.750000, 19.361216) scale(1, -1) rotate(-30.000000) translate(-7.750000, -19.361216) "></path>
            <path d="M19.3612159,12.75 C19.9135007,12.75 20.3463073,13.1977153 20.3279166,13.75 L20.1614199,18.75 C20.1430291,19.3022847 19.7847656,19.75 19.3612159,19.75 C18.9376662,19.75 18.5794027,19.3022847 18.561012,18.75 L18.3945153,13.75 C18.3761246,13.1977153 18.8089312,12.75 19.3612159,12.75 Z" id="Rectangle" fill-opacity="0.12" transform="translate(19.361216, 16.250000) rotate(120.000000) translate(-19.361216, -16.250000) "></path>
            <path d="M4.63878407,4.25 C5.19106882,4.25 5.62387544,4.69771525 5.60548472,5.25 L5.43898799,10.25 C5.42059727,10.8022847 5.06233377,11.25 4.63878407,11.25 C4.21523436,11.25 3.85697086,10.8022847 3.83858014,10.25 L3.67208341,5.25 C3.65369269,4.69771525 4.08649932,4.25 4.63878407,4.25 Z" id="Rectangle-Copy" fill-opacity="0.32" transform="translate(4.638784, 7.750000) scale(1, -1) rotate(-120.000000) translate(-4.638784, -7.750000) "></path>
        </g>
        <g id="10" transform="translate(12.000000, 228.000000) rotate(270.000000) translate(-12.000000, -228.000000) translate(0.000000, 216.000000)" fill="#000000" fill-rule="nonzero">
            <path d="M12,0 C12.5522847,-1.01453063e-16 12.9850914,0.44771525 12.9667007,1 L12.8002039,6 C12.7818132,6.55228475 12.4235497,7 12,7 C11.5764503,7 11.2181868,6.55228475 11.1997961,6 L11.0332993,1 C11.0149086,0.44771525 11.4477153,1.01453063e-16 12,0 Z" id="Rectangle" fill-opacity="0.4"></path>
            <path d="M12,17 C12.5522847,17 12.9850914,17.4477153 12.9667007,18 L12.8002039,23 C12.7818132,23.5522847 12.4235497,24 12,24 C11.5764503,24 11.2181868,23.5522847 11.1997961,23 L11.0332993,18 C11.0149086,17.4477153 11.4477153,17 12,17 Z" id="Rectangle-Copy" fill-opacity="0.16" transform="translate(12.000000, 20.500000) scale(1, -1) translate(-12.000000, -20.500000) "></path>
            <path d="M20.5,8.5 C21.0522847,8.5 21.4850914,8.94771525 21.4667007,9.5 L21.3002039,14.5 C21.2818132,15.0522847 20.9235497,15.5 20.5,15.5 C20.0764503,15.5 19.7181868,15.0522847 19.6997961,14.5 L19.5332993,9.5 C19.5149086,8.94771525 19.9477153,8.5 20.5,8.5 Z" id="Rectangle" fill-opacity="0.12" transform="translate(20.500000, 12.000000) rotate(90.000000) translate(-20.500000, -12.000000) "></path>
            <path d="M3.5,8.5 C4.05228475,8.5 4.48509138,8.94771525 4.46670065,9.5 L4.30020393,14.5 C4.28181321,15.0522847 3.9235497,15.5 3.5,15.5 C3.0764503,15.5 2.71818679,15.0522847 2.69979607,14.5 L2.53329935,9.5 C2.51490862,8.94771525 2.94771525,8.5 3.5,8.5 Z" id="Rectangle-Copy" fill-opacity="0.28" transform="translate(3.500000, 12.000000) scale(1, -1) rotate(-90.000000) translate(-3.500000, -12.000000) "></path>
            <path d="M19.3612159,4.25 C19.9135007,4.25 20.3463073,4.69771525 20.3279166,5.25 L20.1614199,10.25 C20.1430291,10.8022847 19.7847656,11.25 19.3612159,11.25 C18.9376662,11.25 18.5794027,10.8022847 18.561012,10.25 L18.3945153,5.25 C18.3761246,4.69771525 18.8089312,4.25 19.3612159,4.25 Z" id="Rectangle" fill-opacity="0.12" transform="translate(19.361216, 7.750000) rotate(60.000000) translate(-19.361216, -7.750000) "></path>
            <path d="M4.63878407,12.75 C5.19106882,12.75 5.62387544,13.1977153 5.60548472,13.75 L5.43898799,18.75 C5.42059727,19.3022847 5.06233377,19.75 4.63878407,19.75 C4.21523436,19.75 3.85697086,19.3022847 3.83858014,18.75 L3.67208341,13.75 C3.65369269,13.1977153 4.08649932,12.75 4.63878407,12.75 Z" id="Rectangle-Copy" fill-opacity="0.24" transform="translate(4.638784, 16.250000) scale(1, -1) rotate(-60.000000) translate(-4.638784, -16.250000) "></path>
            <path d="M16.25,15.8612159 C16.8022847,15.8612159 17.2350914,16.3089312 17.2167007,16.8612159 L17.0502039,21.8612159 C17.0318132,22.4135007 16.6735497,22.8612159 16.25,22.8612159 C15.8264503,22.8612159 15.4681868,22.4135007 15.4497961,21.8612159 L15.2832993,16.8612159 C15.2649086,16.3089312 15.6977153,15.8612159 16.25,15.8612159 Z" id="Rectangle" fill-opacity="0.12" transform="translate(16.250000, 19.361216) rotate(150.000000) translate(-16.250000, -19.361216) "></path>
            <path d="M7.75,1.13878407 C8.30228475,1.13878407 8.73509138,1.58649932 8.71670065,2.13878407 L8.55020393,7.13878407 C8.53181321,7.69106882 8.1735497,8.13878407 7.75,8.13878407 C7.3264503,8.13878407 6.96818679,7.69106882 6.94979607,7.13878407 L6.78329935,2.13878407 C6.76490862,1.58649932 7.19771525,1.13878407 7.75,1.13878407 Z" id="Rectangle-Copy" fill-opacity="0.36" transform="translate(7.750000, 4.638784) scale(1, -1) rotate(-150.000000) translate(-7.750000, -4.638784) "></path>
            <path d="M16.25,1.13878407 C16.8022847,1.13878407 17.2350914,1.58649932 17.2167007,2.13878407 L17.0502039,7.13878407 C17.0318132,7.69106882 16.6735497,8.13878407 16.25,8.13878407 C15.8264503,8.13878407 15.4681868,7.69106882 15.4497961,7.13878407 L15.2832993,2.13878407 C15.2649086,1.58649932 15.6977153,1.13878407 16.25,1.13878407 Z" id="Rectangle" fill-opacity="0.12" transform="translate(16.250000, 4.638784) rotate(30.000000) translate(-16.250000, -4.638784) "></path>
            <path d="M7.75,15.8612159 C8.30228475,15.8612159 8.73509138,16.3089312 8.71670065,16.8612159 L8.55020393,21.8612159 C8.53181321,22.4135007 8.1735497,22.8612159 7.75,22.8612159 C7.3264503,22.8612159 6.96818679,22.4135007 6.94979607,21.8612159 L6.78329935,16.8612159 C6.76490862,16.3089312 7.19771525,15.8612159 7.75,15.8612159 Z" id="Rectangle-Copy" fill-opacity="0.2" transform="translate(7.750000, 19.361216) scale(1, -1) rotate(-30.000000) translate(-7.750000, -19.361216) "></path>
            <path d="M19.3612159,12.75 C19.9135007,12.75 20.3463073,13.1977153 20.3279166,13.75 L20.1614199,18.75 C20.1430291,19.3022847 19.7847656,19.75 19.3612159,19.75 C18.9376662,19.75 18.5794027,19.3022847 18.561012,18.75 L18.3945153,13.75 C18.3761246,13.1977153 18.8089312,12.75 19.3612159,12.75 Z" id="Rectangle" fill-opacity="0.12" transform="translate(19.361216, 16.250000) rotate(120.000000) translate(-19.361216, -16.250000) "></path>
            <path d="M4.63878407,4.25 C5.19106882,4.25 5.62387544,4.69771525 5.60548472,5.25 L5.43898799,10.25 C5.42059727,10.8022847 5.06233377,11.25 4.63878407,11.25 C4.21523436,11.25 3.85697086,10.8022847 3.83858014,10.25 L3.67208341,5.25 C3.65369269,4.69771525 4.08649932,4.25 4.63878407,4.25 Z" id="Rectangle-Copy" fill-opacity="0.32" transform="translate(4.638784, 7.750000) scale(1, -1) rotate(-120.000000) translate(-4.638784, -7.750000) "></path>
        </g>
        <g id="9" transform="translate(12.000000, 204.000000) rotate(240.000000) translate(-12.000000, -204.000000) translate(0.000000, 192.000000)" fill="#000000" fill-rule="nonzero">
            <path d="M12,0 C12.5522847,-1.01453063e-16 12.9850914,0.44771525 12.9667007,1 L12.8002039,6 C12.7818132,6.55228475 12.4235497,7 12,7 C11.5764503,7 11.2181868,6.55228475 11.1997961,6 L11.0332993,1 C11.0149086,0.44771525 11.4477153,1.01453063e-16 12,0 Z" id="Rectangle" fill-opacity="0.4"></path>
            <path d="M12,17 C12.5522847,17 12.9850914,17.4477153 12.9667007,18 L12.8002039,23 C12.7818132,23.5522847 12.4235497,24 12,24 C11.5764503,24 11.2181868,23.5522847 11.1997961,23 L11.0332993,18 C11.0149086,17.4477153 11.4477153,17 12,17 Z" id="Rectangle-Copy" fill-opacity="0.16" transform="translate(12.000000, 20.500000) scale(1, -1) translate(-12.000000, -20.500000) "></path>
            <path d="M20.5,8.5 C21.0522847,8.5 21.4850914,8.94771525 21.4667007,9.5 L21.3002039,14.5 C21.2818132,15.0522847 20.9235497,15.5 20.5,15.5 C20.0764503,15.5 19.7181868,15.0522847 19.6997961,14.5 L19.5332993,9.5 C19.5149086,8.94771525 19.9477153,8.5 20.5,8.5 Z" id="Rectangle" fill-opacity="0.12" transform="translate(20.500000, 12.000000) rotate(90.000000) translate(-20.500000, -12.000000) "></path>
            <path d="M3.5,8.5 C4.05228475,8.5 4.48509138,8.94771525 4.46670065,9.5 L4.30020393,14.5 C4.28181321,15.0522847 3.9235497,15.5 3.5,15.5 C3.0764503,15.5 2.71818679,15.0522847 2.69979607,14.5 L2.53329935,9.5 C2.51490862,8.94771525 2.94771525,8.5 3.5,8.5 Z" id="Rectangle-Copy" fill-opacity="0.28" transform="translate(3.500000, 12.000000) scale(1, -1) rotate(-90.000000) translate(-3.500000, -12.000000) "></path>
            <path d="M19.3612159,4.25 C19.9135007,4.25 20.3463073,4.69771525 20.3279166,5.25 L20.1614199,10.25 C20.1430291,10.8022847 19.7847656,11.25 19.3612159,11.25 C18.9376662,11.25 18.5794027,10.8022847 18.561012,10.25 L18.3945153,5.25 C18.3761246,4.69771525 18.8089312,4.25 19.3612159,4.25 Z" id="Rectangle" fill-opacity="0.12" transform="translate(19.361216, 7.750000) rotate(60.000000) translate(-19.361216, -7.750000) "></path>
            <path d="M4.63878407,12.75 C5.19106882,12.75 5.62387544,13.1977153 5.60548472,13.75 L5.43898799,18.75 C5.42059727,19.3022847 5.06233377,19.75 4.63878407,19.75 C4.21523436,19.75 3.85697086,19.3022847 3.83858014,18.75 L3.67208341,13.75 C3.65369269,13.1977153 4.08649932,12.75 4.63878407,12.75 Z" id="Rectangle-Copy" fill-opacity="0.24" transform="translate(4.638784, 16.250000) scale(1, -1) rotate(-60.000000) translate(-4.638784, -16.250000) "></path>
            <path d="M16.25,15.8612159 C16.8022847,15.8612159 17.2350914,16.3089312 17.2167007,16.8612159 L17.0502039,21.8612159 C17.0318132,22.4135007 16.6735497,22.8612159 16.25,22.8612159 C15.8264503,22.8612159 15.4681868,22.4135007 15.4497961,21.8612159 L15.2832993,16.8612159 C15.2649086,16.3089312 15.6977153,15.8612159 16.25,15.8612159 Z" id="Rectangle" fill-opacity="0.12" transform="translate(16.250000, 19.361216) rotate(150.000000) translate(-16.250000, -19.361216) "></path>
            <path d="M7.75,1.13878407 C8.30228475,1.13878407 8.73509138,1.58649932 8.71670065,2.13878407 L8.55020393,7.13878407 C8.53181321,7.69106882 8.1735497,8.13878407 7.75,8.13878407 C7.3264503,8.13878407 6.96818679,7.69106882 6.94979607,7.13878407 L6.78329935,2.13878407 C6.76490862,1.58649932 7.19771525,1.13878407 7.75,1.13878407 Z" id="Rectangle-Copy" fill-opacity="0.36" transform="translate(7.750000, 4.638784) scale(1, -1) rotate(-150.000000) translate(-7.750000, -4.638784) "></path>
            <path d="M16.25,1.13878407 C16.8022847,1.13878407 17.2350914,1.58649932 17.2167007,2.13878407 L17.0502039,7.13878407 C17.0318132,7.69106882 16.6735497,8.13878407 16.25,8.13878407 C15.8264503,8.13878407 15.4681868,7.69106882 15.4497961,7.13878407 L15.2832993,2.13878407 C15.2649086,1.58649932 15.6977153,1.13878407 16.25,1.13878407 Z" id="Rectangle" fill-opacity="0.12" transform="translate(16.250000, 4.638784) rotate(30.000000) translate(-16.250000, -4.638784) "></path>
            <path d="M7.75,15.8612159 C8.30228475,15.8612159 8.73509138,16.3089312 8.71670065,16.8612159 L8.55020393,21.8612159 C8.53181321,22.4135007 8.1735497,22.8612159 7.75,22.8612159 C7.3264503,22.8612159 6.96818679,22.4135007 6.94979607,21.8612159 L6.78329935,16.8612159 C6.76490862,16.3089312 7.19771525,15.8612159 7.75,15.8612159 Z" id="Rectangle-Copy" fill-opacity="0.2" transform="translate(7.750000, 19.361216) scale(1, -1) rotate(-30.000000) translate(-7.750000, -19.361216) "></path>
            <path d="M19.3612159,12.75 C19.9135007,12.75 20.3463073,13.1977153 20.3279166,13.75 L20.1614199,18.75 C20.1430291,19.3022847 19.7847656,19.75 19.3612159,19.75 C18.9376662,19.75 18.5794027,19.3022847 18.561012,18.75 L18.3945153,13.75 C18.3761246,13.1977153 18.8089312,12.75 19.3612159,12.75 Z" id="Rectangle" fill-opacity="0.12" transform="translate(19.361216, 16.250000) rotate(120.000000) translate(-19.361216, -16.250000) "></path>
            <path d="M4.63878407,4.25 C5.19106882,4.25 5.62387544,4.69771525 5.60548472,5.25 L5.43898799,10.25 C5.42059727,10.8022847 5.06233377,11.25 4.63878407,11.25 C4.21523436,11.25 3.85697086,10.8022847 3.83858014,10.25 L3.67208341,5.25 C3.65369269,4.69771525 4.08649932,4.25 4.63878407,4.25 Z" id="Rectangle-Copy" fill-opacity="0.32" transform="translate(4.638784, 7.750000) scale(1, -1) rotate(-120.000000) translate(-4.638784, -7.750000) "></path>
        </g>
        <g id="8" transform="translate(12.000000, 180.000000) rotate(210.000000) translate(-12.000000, -180.000000) translate(0.000000, 168.000000)" fill="#000000" fill-rule="nonzero">
            <path d="M12,0 C12.5522847,-1.01453063e-16 12.9850914,0.44771525 12.9667007,1 L12.8002039,6 C12.7818132,6.55228475 12.4235497,7 12,7 C11.5764503,7 11.2181868,6.55228475 11.1997961,6 L11.0332993,1 C11.0149086,0.44771525 11.4477153,1.01453063e-16 12,0 Z" id="Rectangle" fill-opacity="0.4"></path>
            <path d="M12,17 C12.5522847,17 12.9850914,17.4477153 12.9667007,18 L12.8002039,23 C12.7818132,23.5522847 12.4235497,24 12,24 C11.5764503,24 11.2181868,23.5522847 11.1997961,23 L11.0332993,18 C11.0149086,17.4477153 11.4477153,17 12,17 Z" id="Rectangle-Copy" fill-opacity="0.16" transform="translate(12.000000, 20.500000) scale(1, -1) translate(-12.000000, -20.500000) "></path>
            <path d="M20.5,8.5 C21.0522847,8.5 21.4850914,8.94771525 21.4667007,9.5 L21.3002039,14.5 C21.2818132,15.0522847 20.9235497,15.5 20.5,15.5 C20.0764503,15.5 19.7181868,15.0522847 19.6997961,14.5 L19.5332993,9.5 C19.5149086,8.94771525 19.9477153,8.5 20.5,8.5 Z" id="Rectangle" fill-opacity="0.12" transform="translate(20.500000, 12.000000) rotate(90.000000) translate(-20.500000, -12.000000) "></path>
            <path d="M3.5,8.5 C4.05228475,8.5 4.48509138,8.94771525 4.46670065,9.5 L4.30020393,14.5 C4.28181321,15.0522847 3.9235497,15.5 3.5,15.5 C3.0764503,15.5 2.71818679,15.0522847 2.69979607,14.5 L2.53329935,9.5 C2.51490862,8.94771525 2.94771525,8.5 3.5,8.5 Z" id="Rectangle-Copy" fill-opacity="0.28" transform="translate(3.500000, 12.000000) scale(1, -1) rotate(-90.000000) translate(-3.500000, -12.000000) "></path>
            <path d="M19.3612159,4.25 C19.9135007,4.25 20.3463073,4.69771525 20.3279166,5.25 L20.1614199,10.25 C20.1430291,10.8022847 19.7847656,11.25 19.3612159,11.25 C18.9376662,11.25 18.5794027,10.8022847 18.561012,10.25 L18.3945153,5.25 C18.3761246,4.69771525 18.8089312,4.25 19.3612159,4.25 Z" id="Rectangle" fill-opacity="0.12" transform="translate(19.361216, 7.750000) rotate(60.000000) translate(-19.361216, -7.750000) "></path>
            <path d="M4.63878407,12.75 C5.19106882,12.75 5.62387544,13.1977153 5.60548472,13.75 L5.43898799,18.75 C5.42059727,19.3022847 5.06233377,19.75 4.63878407,19.75 C4.21523436,19.75 3.85697086,19.3022847 3.83858014,18.75 L3.67208341,13.75 C3.65369269,13.1977153 4.08649932,12.75 4.63878407,12.75 Z" id="Rectangle-Copy" fill-opacity="0.24" transform="translate(4.638784, 16.250000) scale(1, -1) rotate(-60.000000) translate(-4.638784, -16.250000) "></path>
            <path d="M16.25,15.8612159 C16.8022847,15.8612159 17.2350914,16.3089312 17.2167007,16.8612159 L17.0502039,21.8612159 C17.0318132,22.4135007 16.6735497,22.8612159 16.25,22.8612159 C15.8264503,22.8612159 15.4681868,22.4135007 15.4497961,21.8612159 L15.2832993,16.8612159 C15.2649086,16.3089312 15.6977153,15.8612159 16.25,15.8612159 Z" id="Rectangle" fill-opacity="0.12" transform="translate(16.250000, 19.361216) rotate(150.000000) translate(-16.250000, -19.361216) "></path>
            <path d="M7.75,1.13878407 C8.30228475,1.13878407 8.73509138,1.58649932 8.71670065,2.13878407 L8.55020393,7.13878407 C8.53181321,7.69106882 8.1735497,8.13878407 7.75,8.13878407 C7.3264503,8.13878407 6.96818679,7.69106882 6.94979607,7.13878407 L6.78329935,2.13878407 C6.76490862,1.58649932 7.19771525,1.13878407 7.75,1.13878407 Z" id="Rectangle-Copy" fill-opacity="0.36" transform="translate(7.750000, 4.638784) scale(1, -1) rotate(-150.000000) translate(-7.750000, -4.638784) "></path>
            <path d="M16.25,1.13878407 C16.8022847,1.13878407 17.2350914,1.58649932 17.2167007,2.13878407 L17.0502039,7.13878407 C17.0318132,7.69106882 16.6735497,8.13878407 16.25,8.13878407 C15.8264503,8.13878407 15.4681868,7.69106882 15.4497961,7.13878407 L15.2832993,2.13878407 C15.2649086,1.58649932 15.6977153,1.13878407 16.25,1.13878407 Z" id="Rectangle" fill-opacity="0.12" transform="translate(16.250000, 4.638784) rotate(30.000000) translate(-16.250000, -4.638784) "></path>
            <path d="M7.75,15.8612159 C8.30228475,15.8612159 8.73509138,16.3089312 8.71670065,16.8612159 L8.55020393,21.8612159 C8.53181321,22.4135007 8.1735497,22.8612159 7.75,22.8612159 C7.3264503,22.8612159 6.96818679,22.4135007 6.94979607,21.8612159 L6.78329935,16.8612159 C6.76490862,16.3089312 7.19771525,15.8612159 7.75,15.8612159 Z" id="Rectangle-Copy" fill-opacity="0.2" transform="translate(7.750000, 19.361216) scale(1, -1) rotate(-30.000000) translate(-7.750000, -19.361216) "></path>
            <path d="M19.3612159,12.75 C19.9135007,12.75 20.3463073,13.1977153 20.3279166,13.75 L20.1614199,18.75 C20.1430291,19.3022847 19.7847656,19.75 19.3612159,19.75 C18.9376662,19.75 18.5794027,19.3022847 18.561012,18.75 L18.3945153,13.75 C18.3761246,13.1977153 18.8089312,12.75 19.3612159,12.75 Z" id="Rectangle" fill-opacity="0.12" transform="translate(19.361216, 16.250000) rotate(120.000000) translate(-19.361216, -16.250000) "></path>
            <path d="M4.63878407,4.25 C5.19106882,4.25 5.62387544,4.69771525 5.60548472,5.25 L5.43898799,10.25 C5.42059727,10.8022847 5.06233377,11.25 4.63878407,11.25 C4.21523436,11.25 3.85697086,10.8022847 3.83858014,10.25 L3.67208341,5.25 C3.65369269,4.69771525 4.08649932,4.25 4.63878407,4.25 Z" id="Rectangle-Copy" fill-opacity="0.32" transform="translate(4.638784, 7.750000) scale(1, -1) rotate(-120.000000) translate(-4.638784, -7.750000) "></path>
        </g>
        <g id="7" transform="translate(12.000000, 156.000000) rotate(180.000000) translate(-12.000000, -156.000000) translate(0.000000, 144.000000)" fill="#000000" fill-rule="nonzero">
            <path d="M12,0 C12.5522847,-1.01453063e-16 12.9850914,0.44771525 12.9667007,1 L12.8002039,6 C12.7818132,6.55228475 12.4235497,7 12,7 C11.5764503,7 11.2181868,6.55228475 11.1997961,6 L11.0332993,1 C11.0149086,0.44771525 11.4477153,1.01453063e-16 12,0 Z" id="Rectangle" fill-opacity="0.4"></path>
            <path d="M12,17 C12.5522847,17 12.9850914,17.4477153 12.9667007,18 L12.8002039,23 C12.7818132,23.5522847 12.4235497,24 12,24 C11.5764503,24 11.2181868,23.5522847 11.1997961,23 L11.0332993,18 C11.0149086,17.4477153 11.4477153,17 12,17 Z" id="Rectangle-Copy" fill-opacity="0.16" transform="translate(12.000000, 20.500000) scale(1, -1) translate(-12.000000, -20.500000) "></path>
            <path d="M20.5,8.5 C21.0522847,8.5 21.4850914,8.94771525 21.4667007,9.5 L21.3002039,14.5 C21.2818132,15.0522847 20.9235497,15.5 20.5,15.5 C20.0764503,15.5 19.7181868,15.0522847 19.6997961,14.5 L19.5332993,9.5 C19.5149086,8.94771525 19.9477153,8.5 20.5,8.5 Z" id="Rectangle" fill-opacity="0.12" transform="translate(20.500000, 12.000000) rotate(90.000000) translate(-20.500000, -12.000000) "></path>
            <path d="M3.5,8.5 C4.05228475,8.5 4.48509138,8.94771525 4.46670065,9.5 L4.30020393,14.5 C4.28181321,15.0522847 3.9235497,15.5 3.5,15.5 C3.0764503,15.5 2.71818679,15.0522847 2.69979607,14.5 L2.53329935,9.5 C2.51490862,8.94771525 2.94771525,8.5 3.5,8.5 Z" id="Rectangle-Copy" fill-opacity="0.28" transform="translate(3.500000, 12.000000) scale(1, -1) rotate(-90.000000) translate(-3.500000, -12.000000) "></path>
            <path d="M19.3612159,4.25 C19.9135007,4.25 20.3463073,4.69771525 20.3279166,5.25 L20.1614199,10.25 C20.1430291,10.8022847 19.7847656,11.25 19.3612159,11.25 C18.9376662,11.25 18.5794027,10.8022847 18.561012,10.25 L18.3945153,5.25 C18.3761246,4.69771525 18.8089312,4.25 19.3612159,4.25 Z" id="Rectangle" fill-opacity="0.12" transform="translate(19.361216, 7.750000) rotate(60.000000) translate(-19.361216, -7.750000) "></path>
            <path d="M4.63878407,12.75 C5.19106882,12.75 5.62387544,13.1977153 5.60548472,13.75 L5.43898799,18.75 C5.42059727,19.3022847 5.06233377,19.75 4.63878407,19.75 C4.21523436,19.75 3.85697086,19.3022847 3.83858014,18.75 L3.67208341,13.75 C3.65369269,13.1977153 4.08649932,12.75 4.63878407,12.75 Z" id="Rectangle-Copy" fill-opacity="0.24" transform="translate(4.638784, 16.250000) scale(1, -1) rotate(-60.000000) translate(-4.638784, -16.250000) "></path>
            <path d="M16.25,15.8612159 C16.8022847,15.8612159 17.2350914,16.3089312 17.2167007,16.8612159 L17.0502039,21.8612159 C17.0318132,22.4135007 16.6735497,22.8612159 16.25,22.8612159 C15.8264503,22.8612159 15.4681868,22.4135007 15.4497961,21.8612159 L15.2832993,16.8612159 C15.2649086,16.3089312 15.6977153,15.8612159 16.25,15.8612159 Z" id="Rectangle" fill-opacity="0.12" transform="translate(16.250000, 19.361216) rotate(150.000000) translate(-16.250000, -19.361216) "></path>
            <path d="M7.75,1.13878407 C8.30228475,1.13878407 8.73509138,1.58649932 8.71670065,2.13878407 L8.55020393,7.13878407 C8.53181321,7.69106882 8.1735497,8.13878407 7.75,8.13878407 C7.3264503,8.13878407 6.96818679,7.69106882 6.94979607,7.13878407 L6.78329935,2.13878407 C6.76490862,1.58649932 7.19771525,1.13878407 7.75,1.13878407 Z" id="Rectangle-Copy" fill-opacity="0.36" transform="translate(7.750000, 4.638784) scale(1, -1) rotate(-150.000000) translate(-7.750000, -4.638784) "></path>
            <path d="M16.25,1.13878407 C16.8022847,1.13878407 17.2350914,1.58649932 17.2167007,2.13878407 L17.0502039,7.13878407 C17.0318132,7.69106882 16.6735497,8.13878407 16.25,8.13878407 C15.8264503,8.13878407 15.4681868,7.69106882 15.4497961,7.13878407 L15.2832993,2.13878407 C15.2649086,1.58649932 15.6977153,1.13878407 16.25,1.13878407 Z" id="Rectangle" fill-opacity="0.12" transform="translate(16.250000, 4.638784) rotate(30.000000) translate(-16.250000, -4.638784) "></path>
            <path d="M7.75,15.8612159 C8.30228475,15.8612159 8.73509138,16.3089312 8.71670065,16.8612159 L8.55020393,21.8612159 C8.53181321,22.4135007 8.1735497,22.8612159 7.75,22.8612159 C7.3264503,22.8612159 6.96818679,22.4135007 6.94979607,21.8612159 L6.78329935,16.8612159 C6.76490862,16.3089312 7.19771525,15.8612159 7.75,15.8612159 Z" id="Rectangle-Copy" fill-opacity="0.2" transform="translate(7.750000, 19.361216) scale(1, -1) rotate(-30.000000) translate(-7.750000, -19.361216) "></path>
            <path d="M19.3612159,12.75 C19.9135007,12.75 20.3463073,13.1977153 20.3279166,13.75 L20.1614199,18.75 C20.1430291,19.3022847 19.7847656,19.75 19.3612159,19.75 C18.9376662,19.75 18.5794027,19.3022847 18.561012,18.75 L18.3945153,13.75 C18.3761246,13.1977153 18.8089312,12.75 19.3612159,12.75 Z" id="Rectangle" fill-opacity="0.12" transform="translate(19.361216, 16.250000) rotate(120.000000) translate(-19.361216, -16.250000) "></path>
            <path d="M4.63878407,4.25 C5.19106882,4.25 5.62387544,4.69771525 5.60548472,5.25 L5.43898799,10.25 C5.42059727,10.8022847 5.06233377,11.25 4.63878407,11.25 C4.21523436,11.25 3.85697086,10.8022847 3.83858014,10.25 L3.67208341,5.25 C3.65369269,4.69771525 4.08649932,4.25 4.63878407,4.25 Z" id="Rectangle-Copy" fill-opacity="0.32" transform="translate(4.638784, 7.750000) scale(1, -1) rotate(-120.000000) translate(-4.638784, -7.750000) "></path>
        </g>
        <g id="6" transform="translate(12.000000, 132.000000) rotate(150.000000) translate(-12.000000, -132.000000) translate(0.000000, 120.000000)" fill="#000000" fill-rule="nonzero">
            <path d="M12,0 C12.5522847,-1.01453063e-16 12.9850914,0.44771525 12.9667007,1 L12.8002039,6 C12.7818132,6.55228475 12.4235497,7 12,7 C11.5764503,7 11.2181868,6.55228475 11.1997961,6 L11.0332993,1 C11.0149086,0.44771525 11.4477153,1.01453063e-16 12,0 Z" id="Rectangle" fill-opacity="0.4"></path>
            <path d="M12,17 C12.5522847,17 12.9850914,17.4477153 12.9667007,18 L12.8002039,23 C12.7818132,23.5522847 12.4235497,24 12,24 C11.5764503,24 11.2181868,23.5522847 11.1997961,23 L11.0332993,18 C11.0149086,17.4477153 11.4477153,17 12,17 Z" id="Rectangle-Copy" fill-opacity="0.16" transform="translate(12.000000, 20.500000) scale(1, -1) translate(-12.000000, -20.500000) "></path>
            <path d="M20.5,8.5 C21.0522847,8.5 21.4850914,8.94771525 21.4667007,9.5 L21.3002039,14.5 C21.2818132,15.0522847 20.9235497,15.5 20.5,15.5 C20.0764503,15.5 19.7181868,15.0522847 19.6997961,14.5 L19.5332993,9.5 C19.5149086,8.94771525 19.9477153,8.5 20.5,8.5 Z" id="Rectangle" fill-opacity="0.12" transform="translate(20.500000, 12.000000) rotate(90.000000) translate(-20.500000, -12.000000) "></path>
            <path d="M3.5,8.5 C4.05228475,8.5 4.48509138,8.94771525 4.46670065,9.5 L4.30020393,14.5 C4.28181321,15.0522847 3.9235497,15.5 3.5,15.5 C3.0764503,15.5 2.71818679,15.0522847 2.69979607,14.5 L2.53329935,9.5 C2.51490862,8.94771525 2.94771525,8.5 3.5,8.5 Z" id="Rectangle-Copy" fill-opacity="0.28" transform="translate(3.500000, 12.000000) scale(1, -1) rotate(-90.000000) translate(-3.500000, -12.000000) "></path>
            <path d="M19.3612159,4.25 C19.9135007,4.25 20.3463073,4.69771525 20.3279166,5.25 L20.1614199,10.25 C20.1430291,10.8022847 19.7847656,11.25 19.3612159,11.25 C18.9376662,11.25 18.5794027,10.8022847 18.561012,10.25 L18.3945153,5.25 C18.3761246,4.69771525 18.8089312,4.25 19.3612159,4.25 Z" id="Rectangle" fill-opacity="0.12" transform="translate(19.361216, 7.750000) rotate(60.000000) translate(-19.361216, -7.750000) "></path>
            <path d="M4.63878407,12.75 C5.19106882,12.75 5.62387544,13.1977153 5.60548472,13.75 L5.43898799,18.75 C5.42059727,19.3022847 5.06233377,19.75 4.63878407,19.75 C4.21523436,19.75 3.85697086,19.3022847 3.83858014,18.75 L3.67208341,13.75 C3.65369269,13.1977153 4.08649932,12.75 4.63878407,12.75 Z" id="Rectangle-Copy" fill-opacity="0.24" transform="translate(4.638784, 16.250000) scale(1, -1) rotate(-60.000000) translate(-4.638784, -16.250000) "></path>
            <path d="M16.25,15.8612159 C16.8022847,15.8612159 17.2350914,16.3089312 17.2167007,16.8612159 L17.0502039,21.8612159 C17.0318132,22.4135007 16.6735497,22.8612159 16.25,22.8612159 C15.8264503,22.8612159 15.4681868,22.4135007 15.4497961,21.8612159 L15.2832993,16.8612159 C15.2649086,16.3089312 15.6977153,15.8612159 16.25,15.8612159 Z" id="Rectangle" fill-opacity="0.12" transform="translate(16.250000, 19.361216) rotate(150.000000) translate(-16.250000, -19.361216) "></path>
            <path d="M7.75,1.13878407 C8.30228475,1.13878407 8.73509138,1.58649932 8.71670065,2.13878407 L8.55020393,7.13878407 C8.53181321,7.69106882 8.1735497,8.13878407 7.75,8.13878407 C7.3264503,8.13878407 6.96818679,7.69106882 6.94979607,7.13878407 L6.78329935,2.13878407 C6.76490862,1.58649932 7.19771525,1.13878407 7.75,1.13878407 Z" id="Rectangle-Copy" fill-opacity="0.36" transform="translate(7.750000, 4.638784) scale(1, -1) rotate(-150.000000) translate(-7.750000, -4.638784) "></path>
            <path d="M16.25,1.13878407 C16.8022847,1.13878407 17.2350914,1.58649932 17.2167007,2.13878407 L17.0502039,7.13878407 C17.0318132,7.69106882 16.6735497,8.13878407 16.25,8.13878407 C15.8264503,8.13878407 15.4681868,7.69106882 15.4497961,7.13878407 L15.2832993,2.13878407 C15.2649086,1.58649932 15.6977153,1.13878407 16.25,1.13878407 Z" id="Rectangle" fill-opacity="0.12" transform="translate(16.250000, 4.638784) rotate(30.000000) translate(-16.250000, -4.638784) "></path>
            <path d="M7.75,15.8612159 C8.30228475,15.8612159 8.73509138,16.3089312 8.71670065,16.8612159 L8.55020393,21.8612159 C8.53181321,22.4135007 8.1735497,22.8612159 7.75,22.8612159 C7.3264503,22.8612159 6.96818679,22.4135007 6.94979607,21.8612159 L6.78329935,16.8612159 C6.76490862,16.3089312 7.19771525,15.8612159 7.75,15.8612159 Z" id="Rectangle-Copy" fill-opacity="0.2" transform="translate(7.750000, 19.361216) scale(1, -1) rotate(-30.000000) translate(-7.750000, -19.361216) "></path>
            <path d="M19.3612159,12.75 C19.9135007,12.75 20.3463073,13.1977153 20.3279166,13.75 L20.1614199,18.75 C20.1430291,19.3022847 19.7847656,19.75 19.3612159,19.75 C18.9376662,19.75 18.5794027,19.3022847 18.561012,18.75 L18.3945153,13.75 C18.3761246,13.1977153 18.8089312,12.75 19.3612159,12.75 Z" id="Rectangle" fill-opacity="0.12" transform="translate(19.361216, 16.250000) rotate(120.000000) translate(-19.361216, -16.250000) "></path>
            <path d="M4.63878407,4.25 C5.19106882,4.25 5.62387544,4.69771525 5.60548472,5.25 L5.43898799,10.25 C5.42059727,10.8022847 5.06233377,11.25 4.63878407,11.25 C4.21523436,11.25 3.85697086,10.8022847 3.83858014,10.25 L3.67208341,5.25 C3.65369269,4.69771525 4.08649932,4.25 4.63878407,4.25 Z" id="Rectangle-Copy" fill-opacity="0.32" transform="translate(4.638784, 7.750000) scale(1, -1) rotate(-120.000000) translate(-4.638784, -7.750000) "></path>
        </g>
        <g id="5" transform="translate(12.000000, 108.000000) rotate(120.000000) translate(-12.000000, -108.000000) translate(0.000000, 96.000000)" fill="#000000" fill-rule="nonzero">
            <path d="M12,0 C12.5522847,-1.01453063e-16 12.9850914,0.44771525 12.9667007,1 L12.8002039,6 C12.7818132,6.55228475 12.4235497,7 12,7 C11.5764503,7 11.2181868,6.55228475 11.1997961,6 L11.0332993,1 C11.0149086,0.44771525 11.4477153,1.01453063e-16 12,0 Z" id="Rectangle" fill-opacity="0.4"></path>
            <path d="M12,17 C12.5522847,17 12.9850914,17.4477153 12.9667007,18 L12.8002039,23 C12.7818132,23.5522847 12.4235497,24 12,24 C11.5764503,24 11.2181868,23.5522847 11.1997961,23 L11.0332993,18 C11.0149086,17.4477153 11.4477153,17 12,17 Z" id="Rectangle-Copy" fill-opacity="0.16" transform="translate(12.000000, 20.500000) scale(1, -1) translate(-12.000000, -20.500000) "></path>
            <path d="M20.5,8.5 C21.0522847,8.5 21.4850914,8.94771525 21.4667007,9.5 L21.3002039,14.5 C21.2818132,15.0522847 20.9235497,15.5 20.5,15.5 C20.0764503,15.5 19.7181868,15.0522847 19.6997961,14.5 L19.5332993,9.5 C19.5149086,8.94771525 19.9477153,8.5 20.5,8.5 Z" id="Rectangle" fill-opacity="0.12" transform="translate(20.500000, 12.000000) rotate(90.000000) translate(-20.500000, -12.000000) "></path>
            <path d="M3.5,8.5 C4.05228475,8.5 4.48509138,8.94771525 4.46670065,9.5 L4.30020393,14.5 C4.28181321,15.0522847 3.9235497,15.5 3.5,15.5 C3.0764503,15.5 2.71818679,15.0522847 2.69979607,14.5 L2.53329935,9.5 C2.51490862,8.94771525 2.94771525,8.5 3.5,8.5 Z" id="Rectangle-Copy" fill-opacity="0.28" transform="translate(3.500000, 12.000000) scale(1, -1) rotate(-90.000000) translate(-3.500000, -12.000000) "></path>
            <path d="M19.3612159,4.25 C19.9135007,4.25 20.3463073,4.69771525 20.3279166,5.25 L20.1614199,10.25 C20.1430291,10.8022847 19.7847656,11.25 19.3612159,11.25 C18.9376662,11.25 18.5794027,10.8022847 18.561012,10.25 L18.3945153,5.25 C18.3761246,4.69771525 18.8089312,4.25 19.3612159,4.25 Z" id="Rectangle" fill-opacity="0.12" transform="translate(19.361216, 7.750000) rotate(60.000000) translate(-19.361216, -7.750000) "></path>
            <path d="M4.63878407,12.75 C5.19106882,12.75 5.62387544,13.1977153 5.60548472,13.75 L5.43898799,18.75 C5.42059727,19.3022847 5.06233377,19.75 4.63878407,19.75 C4.21523436,19.75 3.85697086,19.3022847 3.83858014,18.75 L3.67208341,13.75 C3.65369269,13.1977153 4.08649932,12.75 4.63878407,12.75 Z" id="Rectangle-Copy" fill-opacity="0.24" transform="translate(4.638784, 16.250000) scale(1, -1) rotate(-60.000000) translate(-4.638784, -16.250000) "></path>
            <path d="M16.25,15.8612159 C16.8022847,15.8612159 17.2350914,16.3089312 17.2167007,16.8612159 L17.0502039,21.8612159 C17.0318132,22.4135007 16.6735497,22.8612159 16.25,22.8612159 C15.8264503,22.8612159 15.4681868,22.4135007 15.4497961,21.8612159 L15.2832993,16.8612159 C15.2649086,16.3089312 15.6977153,15.8612159 16.25,15.8612159 Z" id="Rectangle" fill-opacity="0.12" transform="translate(16.250000, 19.361216) rotate(150.000000) translate(-16.250000, -19.361216) "></path>
            <path d="M7.75,1.13878407 C8.30228475,1.13878407 8.73509138,1.58649932 8.71670065,2.13878407 L8.55020393,7.13878407 C8.53181321,7.69106882 8.1735497,8.13878407 7.75,8.13878407 C7.3264503,8.13878407 6.96818679,7.69106882 6.94979607,7.13878407 L6.78329935,2.13878407 C6.76490862,1.58649932 7.19771525,1.13878407 7.75,1.13878407 Z" id="Rectangle-Copy" fill-opacity="0.36" transform="translate(7.750000, 4.638784) scale(1, -1) rotate(-150.000000) translate(-7.750000, -4.638784) "></path>
            <path d="M16.25,1.13878407 C16.8022847,1.13878407 17.2350914,1.58649932 17.2167007,2.13878407 L17.0502039,7.13878407 C17.0318132,7.69106882 16.6735497,8.13878407 16.25,8.13878407 C15.8264503,8.13878407 15.4681868,7.69106882 15.4497961,7.13878407 L15.2832993,2.13878407 C15.2649086,1.58649932 15.6977153,1.13878407 16.25,1.13878407 Z" id="Rectangle" fill-opacity="0.12" transform="translate(16.250000, 4.638784) rotate(30.000000) translate(-16.250000, -4.638784) "></path>
            <path d="M7.75,15.8612159 C8.30228475,15.8612159 8.73509138,16.3089312 8.71670065,16.8612159 L8.55020393,21.8612159 C8.53181321,22.4135007 8.1735497,22.8612159 7.75,22.8612159 C7.3264503,22.8612159 6.96818679,22.4135007 6.94979607,21.8612159 L6.78329935,16.8612159 C6.76490862,16.3089312 7.19771525,15.8612159 7.75,15.8612159 Z" id="Rectangle-Copy" fill-opacity="0.2" transform="translate(7.750000, 19.361216) scale(1, -1) rotate(-30.000000) translate(-7.750000, -19.361216) "></path>
            <path d="M19.3612159,12.75 C19.9135007,12.75 20.3463073,13.1977153 20.3279166,13.75 L20.1614199,18.75 C20.1430291,19.3022847 19.7847656,19.75 19.3612159,19.75 C18.9376662,19.75 18.5794027,19.3022847 18.561012,18.75 L18.3945153,13.75 C18.3761246,13.1977153 18.8089312,12.75 19.3612159,12.75 Z" id="Rectangle" fill-opacity="0.12" transform="translate(19.361216, 16.250000) rotate(120.000000) translate(-19.361216, -16.250000) "></path>
            <path d="M4.63878407,4.25 C5.19106882,4.25 5.62387544,4.69771525 5.60548472,5.25 L5.43898799,10.25 C5.42059727,10.8022847 5.06233377,11.25 4.63878407,11.25 C4.21523436,11.25 3.85697086,10.8022847 3.83858014,10.25 L3.67208341,5.25 C3.65369269,4.69771525 4.08649932,4.25 4.63878407,4.25 Z" id="Rectangle-Copy" fill-opacity="0.32" transform="translate(4.638784, 7.750000) scale(1, -1) rotate(-120.000000) translate(-4.638784, -7.750000) "></path>
        </g>
        <g id="4" transform="translate(12.000000, 84.000000) rotate(90.000000) translate(-12.000000, -84.000000) translate(0.000000, 72.000000)" fill="#000000" fill-rule="nonzero">
            <path d="M12,0 C12.5522847,-1.01453063e-16 12.9850914,0.44771525 12.9667007,1 L12.8002039,6 C12.7818132,6.55228475 12.4235497,7 12,7 C11.5764503,7 11.2181868,6.55228475 11.1997961,6 L11.0332993,1 C11.0149086,0.44771525 11.4477153,1.01453063e-16 12,0 Z" id="Rectangle" fill-opacity="0.4"></path>
            <path d="M12,17 C12.5522847,17 12.9850914,17.4477153 12.9667007,18 L12.8002039,23 C12.7818132,23.5522847 12.4235497,24 12,24 C11.5764503,24 11.2181868,23.5522847 11.1997961,23 L11.0332993,18 C11.0149086,17.4477153 11.4477153,17 12,17 Z" id="Rectangle-Copy" fill-opacity="0.16" transform="translate(12.000000, 20.500000) scale(1, -1) translate(-12.000000, -20.500000) "></path>
            <path d="M20.5,8.5 C21.0522847,8.5 21.4850914,8.94771525 21.4667007,9.5 L21.3002039,14.5 C21.2818132,15.0522847 20.9235497,15.5 20.5,15.5 C20.0764503,15.5 19.7181868,15.0522847 19.6997961,14.5 L19.5332993,9.5 C19.5149086,8.94771525 19.9477153,8.5 20.5,8.5 Z" id="Rectangle" fill-opacity="0.12" transform="translate(20.500000, 12.000000) rotate(90.000000) translate(-20.500000, -12.000000) "></path>
            <path d="M3.5,8.5 C4.05228475,8.5 4.48509138,8.94771525 4.46670065,9.5 L4.30020393,14.5 C4.28181321,15.0522847 3.9235497,15.5 3.5,15.5 C3.0764503,15.5 2.71818679,15.0522847 2.69979607,14.5 L2.53329935,9.5 C2.51490862,8.94771525 2.94771525,8.5 3.5,8.5 Z" id="Rectangle-Copy" fill-opacity="0.28" transform="translate(3.500000, 12.000000) scale(1, -1) rotate(-90.000000) translate(-3.500000, -12.000000) "></path>
            <path d="M19.3612159,4.25 C19.9135007,4.25 20.3463073,4.69771525 20.3279166,5.25 L20.1614199,10.25 C20.1430291,10.8022847 19.7847656,11.25 19.3612159,11.25 C18.9376662,11.25 18.5794027,10.8022847 18.561012,10.25 L18.3945153,5.25 C18.3761246,4.69771525 18.8089312,4.25 19.3612159,4.25 Z" id="Rectangle" fill-opacity="0.12" transform="translate(19.361216, 7.750000) rotate(60.000000) translate(-19.361216, -7.750000) "></path>
            <path d="M4.63878407,12.75 C5.19106882,12.75 5.62387544,13.1977153 5.60548472,13.75 L5.43898799,18.75 C5.42059727,19.3022847 5.06233377,19.75 4.63878407,19.75 C4.21523436,19.75 3.85697086,19.3022847 3.83858014,18.75 L3.67208341,13.75 C3.65369269,13.1977153 4.08649932,12.75 4.63878407,12.75 Z" id="Rectangle-Copy" fill-opacity="0.24" transform="translate(4.638784, 16.250000) scale(1, -1) rotate(-60.000000) translate(-4.638784, -16.250000) "></path>
            <path d="M16.25,15.8612159 C16.8022847,15.8612159 17.2350914,16.3089312 17.2167007,16.8612159 L17.0502039,21.8612159 C17.0318132,22.4135007 16.6735497,22.8612159 16.25,22.8612159 C15.8264503,22.8612159 15.4681868,22.4135007 15.4497961,21.8612159 L15.2832993,16.8612159 C15.2649086,16.3089312 15.6977153,15.8612159 16.25,15.8612159 Z" id="Rectangle" fill-opacity="0.12" transform="translate(16.250000, 19.361216) rotate(150.000000) translate(-16.250000, -19.361216) "></path>
            <path d="M7.75,1.13878407 C8.30228475,1.13878407 8.73509138,1.58649932 8.71670065,2.13878407 L8.55020393,7.13878407 C8.53181321,7.69106882 8.1735497,8.13878407 7.75,8.13878407 C7.3264503,8.13878407 6.96818679,7.69106882 6.94979607,7.13878407 L6.78329935,2.13878407 C6.76490862,1.58649932 7.19771525,1.13878407 7.75,1.13878407 Z" id="Rectangle-Copy" fill-opacity="0.36" transform="translate(7.750000, 4.638784) scale(1, -1) rotate(-150.000000) translate(-7.750000, -4.638784) "></path>
            <path d="M16.25,1.13878407 C16.8022847,1.13878407 17.2350914,1.58649932 17.2167007,2.13878407 L17.0502039,7.13878407 C17.0318132,7.69106882 16.6735497,8.13878407 16.25,8.13878407 C15.8264503,8.13878407 15.4681868,7.69106882 15.4497961,7.13878407 L15.2832993,2.13878407 C15.2649086,1.58649932 15.6977153,1.13878407 16.25,1.13878407 Z" id="Rectangle" fill-opacity="0.12" transform="translate(16.250000, 4.638784) rotate(30.000000) translate(-16.250000, -4.638784) "></path>
            <path d="M7.75,15.8612159 C8.30228475,15.8612159 8.73509138,16.3089312 8.71670065,16.8612159 L8.55020393,21.8612159 C8.53181321,22.4135007 8.1735497,22.8612159 7.75,22.8612159 C7.3264503,22.8612159 6.96818679,22.4135007 6.94979607,21.8612159 L6.78329935,16.8612159 C6.76490862,16.3089312 7.19771525,15.8612159 7.75,15.8612159 Z" id="Rectangle-Copy" fill-opacity="0.2" transform="translate(7.750000, 19.361216) scale(1, -1) rotate(-30.000000) translate(-7.750000, -19.361216) "></path>
            <path d="M19.3612159,12.75 C19.9135007,12.75 20.3463073,13.1977153 20.3279166,13.75 L20.1614199,18.75 C20.1430291,19.3022847 19.7847656,19.75 19.3612159,19.75 C18.9376662,19.75 18.5794027,19.3022847 18.561012,18.75 L18.3945153,13.75 C18.3761246,13.1977153 18.8089312,12.75 19.3612159,12.75 Z" id="Rectangle" fill-opacity="0.12" transform="translate(19.361216, 16.250000) rotate(120.000000) translate(-19.361216, -16.250000) "></path>
            <path d="M4.63878407,4.25 C5.19106882,4.25 5.62387544,4.69771525 5.60548472,5.25 L5.43898799,10.25 C5.42059727,10.8022847 5.06233377,11.25 4.63878407,11.25 C4.21523436,11.25 3.85697086,10.8022847 3.83858014,10.25 L3.67208341,5.25 C3.65369269,4.69771525 4.08649932,4.25 4.63878407,4.25 Z" id="Rectangle-Copy" fill-opacity="0.32" transform="translate(4.638784, 7.750000) scale(1, -1) rotate(-120.000000) translate(-4.638784, -7.750000) "></path>
        </g>
        <g id="3" transform="translate(12.000000, 60.000000) rotate(60.000000) translate(-12.000000, -60.000000) translate(0.000000, 48.000000)" fill="#000000" fill-rule="nonzero">
            <path d="M12,0 C12.5522847,-1.01453063e-16 12.9850914,0.44771525 12.9667007,1 L12.8002039,6 C12.7818132,6.55228475 12.4235497,7 12,7 C11.5764503,7 11.2181868,6.55228475 11.1997961,6 L11.0332993,1 C11.0149086,0.44771525 11.4477153,1.01453063e-16 12,0 Z" id="Rectangle" fill-opacity="0.4"></path>
            <path d="M12,17 C12.5522847,17 12.9850914,17.4477153 12.9667007,18 L12.8002039,23 C12.7818132,23.5522847 12.4235497,24 12,24 C11.5764503,24 11.2181868,23.5522847 11.1997961,23 L11.0332993,18 C11.0149086,17.4477153 11.4477153,17 12,17 Z" id="Rectangle-Copy" fill-opacity="0.16" transform="translate(12.000000, 20.500000) scale(1, -1) translate(-12.000000, -20.500000) "></path>
            <path d="M20.5,8.5 C21.0522847,8.5 21.4850914,8.94771525 21.4667007,9.5 L21.3002039,14.5 C21.2818132,15.0522847 20.9235497,15.5 20.5,15.5 C20.0764503,15.5 19.7181868,15.0522847 19.6997961,14.5 L19.5332993,9.5 C19.5149086,8.94771525 19.9477153,8.5 20.5,8.5 Z" id="Rectangle" fill-opacity="0.12" transform="translate(20.500000, 12.000000) rotate(90.000000) translate(-20.500000, -12.000000) "></path>
            <path d="M3.5,8.5 C4.05228475,8.5 4.48509138,8.94771525 4.46670065,9.5 L4.30020393,14.5 C4.28181321,15.0522847 3.9235497,15.5 3.5,15.5 C3.0764503,15.5 2.71818679,15.0522847 2.69979607,14.5 L2.53329935,9.5 C2.51490862,8.94771525 2.94771525,8.5 3.5,8.5 Z" id="Rectangle-Copy" fill-opacity="0.28" transform="translate(3.500000, 12.000000) scale(1, -1) rotate(-90.000000) translate(-3.500000, -12.000000) "></path>
            <path d="M19.3612159,4.25 C19.9135007,4.25 20.3463073,4.69771525 20.3279166,5.25 L20.1614199,10.25 C20.1430291,10.8022847 19.7847656,11.25 19.3612159,11.25 C18.9376662,11.25 18.5794027,10.8022847 18.561012,10.25 L18.3945153,5.25 C18.3761246,4.69771525 18.8089312,4.25 19.3612159,4.25 Z" id="Rectangle" fill-opacity="0.12" transform="translate(19.361216, 7.750000) rotate(60.000000) translate(-19.361216, -7.750000) "></path>
            <path d="M4.63878407,12.75 C5.19106882,12.75 5.62387544,13.1977153 5.60548472,13.75 L5.43898799,18.75 C5.42059727,19.3022847 5.06233377,19.75 4.63878407,19.75 C4.21523436,19.75 3.85697086,19.3022847 3.83858014,18.75 L3.67208341,13.75 C3.65369269,13.1977153 4.08649932,12.75 4.63878407,12.75 Z" id="Rectangle-Copy" fill-opacity="0.24" transform="translate(4.638784, 16.250000) scale(1, -1) rotate(-60.000000) translate(-4.638784, -16.250000) "></path>
            <path d="M16.25,15.8612159 C16.8022847,15.8612159 17.2350914,16.3089312 17.2167007,16.8612159 L17.0502039,21.8612159 C17.0318132,22.4135007 16.6735497,22.8612159 16.25,22.8612159 C15.8264503,22.8612159 15.4681868,22.4135007 15.4497961,21.8612159 L15.2832993,16.8612159 C15.2649086,16.3089312 15.6977153,15.8612159 16.25,15.8612159 Z" id="Rectangle" fill-opacity="0.12" transform="translate(16.250000, 19.361216) rotate(150.000000) translate(-16.250000, -19.361216) "></path>
            <path d="M7.75,1.13878407 C8.30228475,1.13878407 8.73509138,1.58649932 8.71670065,2.13878407 L8.55020393,7.13878407 C8.53181321,7.69106882 8.1735497,8.13878407 7.75,8.13878407 C7.3264503,8.13878407 6.96818679,7.69106882 6.94979607,7.13878407 L6.78329935,2.13878407 C6.76490862,1.58649932 7.19771525,1.13878407 7.75,1.13878407 Z" id="Rectangle-Copy" fill-opacity="0.36" transform="translate(7.750000, 4.638784) scale(1, -1) rotate(-150.000000) translate(-7.750000, -4.638784) "></path>
            <path d="M16.25,1.13878407 C16.8022847,1.13878407 17.2350914,1.58649932 17.2167007,2.13878407 L17.0502039,7.13878407 C17.0318132,7.69106882 16.6735497,8.13878407 16.25,8.13878407 C15.8264503,8.13878407 15.4681868,7.69106882 15.4497961,7.13878407 L15.2832993,2.13878407 C15.2649086,1.58649932 15.6977153,1.13878407 16.25,1.13878407 Z" id="Rectangle" fill-opacity="0.12" transform="translate(16.250000, 4.638784) rotate(30.000000) translate(-16.250000, -4.638784) "></path>
            <path d="M7.75,15.8612159 C8.30228475,15.8612159 8.73509138,16.3089312 8.71670065,16.8612159 L8.55020393,21.8612159 C8.53181321,22.4135007 8.1735497,22.8612159 7.75,22.8612159 C7.3264503,22.8612159 6.96818679,22.4135007 6.94979607,21.8612159 L6.78329935,16.8612159 C6.76490862,16.3089312 7.19771525,15.8612159 7.75,15.8612159 Z" id="Rectangle-Copy" fill-opacity="0.2" transform="translate(7.750000, 19.361216) scale(1, -1) rotate(-30.000000) translate(-7.750000, -19.361216) "></path>
            <path d="M19.3612159,12.75 C19.9135007,12.75 20.3463073,13.1977153 20.3279166,13.75 L20.1614199,18.75 C20.1430291,19.3022847 19.7847656,19.75 19.3612159,19.75 C18.9376662,19.75 18.5794027,19.3022847 18.561012,18.75 L18.3945153,13.75 C18.3761246,13.1977153 18.8089312,12.75 19.3612159,12.75 Z" id="Rectangle" fill-opacity="0.12" transform="translate(19.361216, 16.250000) rotate(120.000000) translate(-19.361216, -16.250000) "></path>
            <path d="M4.63878407,4.25 C5.19106882,4.25 5.62387544,4.69771525 5.60548472,5.25 L5.43898799,10.25 C5.42059727,10.8022847 5.06233377,11.25 4.63878407,11.25 C4.21523436,11.25 3.85697086,10.8022847 3.83858014,10.25 L3.67208341,5.25 C3.65369269,4.69771525 4.08649932,4.25 4.63878407,4.25 Z" id="Rectangle-Copy" fill-opacity="0.32" transform="translate(4.638784, 7.750000) scale(1, -1) rotate(-120.000000) translate(-4.638784, -7.750000) "></path>
        </g>
        <g id="2" transform="translate(12.000000, 36.000000) rotate(30.000000) translate(-12.000000, -36.000000) translate(0.000000, 24.000000)" fill="#000000" fill-rule="nonzero">
            <path d="M12,0 C12.5522847,-1.01453063e-16 12.9850914,0.44771525 12.9667007,1 L12.8002039,6 C12.7818132,6.55228475 12.4235497,7 12,7 C11.5764503,7 11.2181868,6.55228475 11.1997961,6 L11.0332993,1 C11.0149086,0.44771525 11.4477153,1.01453063e-16 12,0 Z" id="Rectangle" fill-opacity="0.4"></path>
            <path d="M12,17 C12.5522847,17 12.9850914,17.4477153 12.9667007,18 L12.8002039,23 C12.7818132,23.5522847 12.4235497,24 12,24 C11.5764503,24 11.2181868,23.5522847 11.1997961,23 L11.0332993,18 C11.0149086,17.4477153 11.4477153,17 12,17 Z" id="Rectangle-Copy" fill-opacity="0.16" transform="translate(12.000000, 20.500000) scale(1, -1) translate(-12.000000, -20.500000) "></path>
            <path d="M20.5,8.5 C21.0522847,8.5 21.4850914,8.94771525 21.4667007,9.5 L21.3002039,14.5 C21.2818132,15.0522847 20.9235497,15.5 20.5,15.5 C20.0764503,15.5 19.7181868,15.0522847 19.6997961,14.5 L19.5332993,9.5 C19.5149086,8.94771525 19.9477153,8.5 20.5,8.5 Z" id="Rectangle" fill-opacity="0.12" transform="translate(20.500000, 12.000000) rotate(90.000000) translate(-20.500000, -12.000000) "></path>
            <path d="M3.5,8.5 C4.05228475,8.5 4.48509138,8.94771525 4.46670065,9.5 L4.30020393,14.5 C4.28181321,15.0522847 3.9235497,15.5 3.5,15.5 C3.0764503,15.5 2.71818679,15.0522847 2.69979607,14.5 L2.53329935,9.5 C2.51490862,8.94771525 2.94771525,8.5 3.5,8.5 Z" id="Rectangle-Copy" fill-opacity="0.28" transform="translate(3.500000, 12.000000) scale(1, -1) rotate(-90.000000) translate(-3.500000, -12.000000) "></path>
            <path d="M19.3612159,4.25 C19.9135007,4.25 20.3463073,4.69771525 20.3279166,5.25 L20.1614199,10.25 C20.1430291,10.8022847 19.7847656,11.25 19.3612159,11.25 C18.9376662,11.25 18.5794027,10.8022847 18.561012,10.25 L18.3945153,5.25 C18.3761246,4.69771525 18.8089312,4.25 19.3612159,4.25 Z" id="Rectangle" fill-opacity="0.12" transform="translate(19.361216, 7.750000) rotate(60.000000) translate(-19.361216, -7.750000) "></path>
            <path d="M4.63878407,12.75 C5.19106882,12.75 5.62387544,13.1977153 5.60548472,13.75 L5.43898799,18.75 C5.42059727,19.3022847 5.06233377,19.75 4.63878407,19.75 C4.21523436,19.75 3.85697086,19.3022847 3.83858014,18.75 L3.67208341,13.75 C3.65369269,13.1977153 4.08649932,12.75 4.63878407,12.75 Z" id="Rectangle-Copy" fill-opacity="0.24" transform="translate(4.638784, 16.250000) scale(1, -1) rotate(-60.000000) translate(-4.638784, -16.250000) "></path>
            <path d="M16.25,15.8612159 C16.8022847,15.8612159 17.2350914,16.3089312 17.2167007,16.8612159 L17.0502039,21.8612159 C17.0318132,22.4135007 16.6735497,22.8612159 16.25,22.8612159 C15.8264503,22.8612159 15.4681868,22.4135007 15.4497961,21.8612159 L15.2832993,16.8612159 C15.2649086,16.3089312 15.6977153,15.8612159 16.25,15.8612159 Z" id="Rectangle" fill-opacity="0.12" transform="translate(16.250000, 19.361216) rotate(150.000000) translate(-16.250000, -19.361216) "></path>
            <path d="M7.75,1.13878407 C8.30228475,1.13878407 8.73509138,1.58649932 8.71670065,2.13878407 L8.55020393,7.13878407 C8.53181321,7.69106882 8.1735497,8.13878407 7.75,8.13878407 C7.3264503,8.13878407 6.96818679,7.69106882 6.94979607,7.13878407 L6.78329935,2.13878407 C6.76490862,1.58649932 7.19771525,1.13878407 7.75,1.13878407 Z" id="Rectangle-Copy" fill-opacity="0.36" transform="translate(7.750000, 4.638784) scale(1, -1) rotate(-150.000000) translate(-7.750000, -4.638784) "></path>
            <path d="M16.25,1.13878407 C16.8022847,1.13878407 17.2350914,1.58649932 17.2167007,2.13878407 L17.0502039,7.13878407 C17.0318132,7.69106882 16.6735497,8.13878407 16.25,8.13878407 C15.8264503,8.13878407 15.4681868,7.69106882 15.4497961,7.13878407 L15.2832993,2.13878407 C15.2649086,1.58649932 15.6977153,1.13878407 16.25,1.13878407 Z" id="Rectangle" fill-opacity="0.12" transform="translate(16.250000, 4.638784) rotate(30.000000) translate(-16.250000, -4.638784) "></path>
            <path d="M7.75,15.8612159 C8.30228475,15.8612159 8.73509138,16.3089312 8.71670065,16.8612159 L8.55020393,21.8612159 C8.53181321,22.4135007 8.1735497,22.8612159 7.75,22.8612159 C7.3264503,22.8612159 6.96818679,22.4135007 6.94979607,21.8612159 L6.78329935,16.8612159 C6.76490862,16.3089312 7.19771525,15.8612159 7.75,15.8612159 Z" id="Rectangle-Copy" fill-opacity="0.2" transform="translate(7.750000, 19.361216) scale(1, -1) rotate(-30.000000) translate(-7.750000, -19.361216) "></path>
            <path d="M19.3612159,12.75 C19.9135007,12.75 20.3463073,13.1977153 20.3279166,13.75 L20.1614199,18.75 C20.1430291,19.3022847 19.7847656,19.75 19.3612159,19.75 C18.9376662,19.75 18.5794027,19.3022847 18.561012,18.75 L18.3945153,13.75 C18.3761246,13.1977153 18.8089312,12.75 19.3612159,12.75 Z" id="Rectangle" fill-opacity="0.12" transform="translate(19.361216, 16.250000) rotate(120.000000) translate(-19.361216, -16.250000) "></path>
            <path d="M4.63878407,4.25 C5.19106882,4.25 5.62387544,4.69771525 5.60548472,5.25 L5.43898799,10.25 C5.42059727,10.8022847 5.06233377,11.25 4.63878407,11.25 C4.21523436,11.25 3.85697086,10.8022847 3.83858014,10.25 L3.67208341,5.25 C3.65369269,4.69771525 4.08649932,4.25 4.63878407,4.25 Z" id="Rectangle-Copy" fill-opacity="0.32" transform="translate(4.638784, 7.750000) scale(1, -1) rotate(-120.000000) translate(-4.638784, -7.750000) "></path>
        </g>
        <g id="1" fill="#000000" fill-rule="nonzero">
            <path d="M12,0 C12.5522847,-1.01453063e-16 12.9850914,0.44771525 12.9667007,1 L12.8002039,6 C12.7818132,6.55228475 12.4235497,7 12,7 C11.5764503,7 11.2181868,6.55228475 11.1997961,6 L11.0332993,1 C11.0149086,0.44771525 11.4477153,1.01453063e-16 12,0 Z" id="Rectangle" fill-opacity="0.4"></path>
            <path d="M12,17 C12.5522847,17 12.9850914,17.4477153 12.9667007,18 L12.8002039,23 C12.7818132,23.5522847 12.4235497,24 12,24 C11.5764503,24 11.2181868,23.5522847 11.1997961,23 L11.0332993,18 C11.0149086,17.4477153 11.4477153,17 12,17 Z" id="Rectangle-Copy" fill-opacity="0.16" transform="translate(12.000000, 20.500000) scale(1, -1) translate(-12.000000, -20.500000) "></path>
            <path d="M20.5,8.5 C21.0522847,8.5 21.4850914,8.94771525 21.4667007,9.5 L21.3002039,14.5 C21.2818132,15.0522847 20.9235497,15.5 20.5,15.5 C20.0764503,15.5 19.7181868,15.0522847 19.6997961,14.5 L19.5332993,9.5 C19.5149086,8.94771525 19.9477153,8.5 20.5,8.5 Z" id="Rectangle" fill-opacity="0.12" transform="translate(20.500000, 12.000000) rotate(90.000000) translate(-20.500000, -12.000000) "></path>
            <path d="M3.5,8.5 C4.05228475,8.5 4.48509138,8.94771525 4.46670065,9.5 L4.30020393,14.5 C4.28181321,15.0522847 3.9235497,15.5 3.5,15.5 C3.0764503,15.5 2.71818679,15.0522847 2.69979607,14.5 L2.53329935,9.5 C2.51490862,8.94771525 2.94771525,8.5 3.5,8.5 Z" id="Rectangle-Copy" fill-opacity="0.28" transform="translate(3.500000, 12.000000) scale(1, -1) rotate(-90.000000) translate(-3.500000, -12.000000) "></path>
            <path d="M19.3612159,4.25 C19.9135007,4.25 20.3463073,4.69771525 20.3279166,5.25 L20.1614199,10.25 C20.1430291,10.8022847 19.7847656,11.25 19.3612159,11.25 C18.9376662,11.25 18.5794027,10.8022847 18.561012,10.25 L18.3945153,5.25 C18.3761246,4.69771525 18.8089312,4.25 19.3612159,4.25 Z" id="Rectangle" fill-opacity="0.12" transform="translate(19.361216, 7.750000) rotate(60.000000) translate(-19.361216, -7.750000) "></path>
            <path d="M4.63878407,12.75 C5.19106882,12.75 5.62387544,13.1977153 5.60548472,13.75 L5.43898799,18.75 C5.42059727,19.3022847 5.06233377,19.75 4.63878407,19.75 C4.21523436,19.75 3.85697086,19.3022847 3.83858014,18.75 L3.67208341,13.75 C3.65369269,13.1977153 4.08649932,12.75 4.63878407,12.75 Z" id="Rectangle-Copy" fill-opacity="0.24" transform="translate(4.638784, 16.250000) scale(1, -1) rotate(-60.000000) translate(-4.638784, -16.250000) "></path>
            <path d="M16.25,15.8612159 C16.8022847,15.8612159 17.2350914,16.3089312 17.2167007,16.8612159 L17.0502039,21.8612159 C17.0318132,22.4135007 16.6735497,22.8612159 16.25,22.8612159 C15.8264503,22.8612159 15.4681868,22.4135007 15.4497961,21.8612159 L15.2832993,16.8612159 C15.2649086,16.3089312 15.6977153,15.8612159 16.25,15.8612159 Z" id="Rectangle" fill-opacity="0.12" transform="translate(16.250000, 19.361216) rotate(150.000000) translate(-16.250000, -19.361216) "></path>
            <path d="M7.75,1.13878407 C8.30228475,1.13878407 8.73509138,1.58649932 8.71670065,2.13878407 L8.55020393,7.13878407 C8.53181321,7.69106882 8.1735497,8.13878407 7.75,8.13878407 C7.3264503,8.13878407 6.96818679,7.69106882 6.94979607,7.13878407 L6.78329935,2.13878407 C6.76490862,1.58649932 7.19771525,1.13878407 7.75,1.13878407 Z" id="Rectangle-Copy" fill-opacity="0.36" transform="translate(7.750000, 4.638784) scale(1, -1) rotate(-150.000000) translate(-7.750000, -4.638784) "></path>
            <path d="M16.25,1.13878407 C16.8022847,1.13878407 17.2350914,1.58649932 17.2167007,2.13878407 L17.0502039,7.13878407 C17.0318132,7.69106882 16.6735497,8.13878407 16.25,8.13878407 C15.8264503,8.13878407 15.4681868,7.69106882 15.4497961,7.13878407 L15.2832993,2.13878407 C15.2649086,1.58649932 15.6977153,1.13878407 16.25,1.13878407 Z" id="Rectangle" fill-opacity="0.12" transform="translate(16.250000, 4.638784) rotate(30.000000) translate(-16.250000, -4.638784) "></path>
            <path d="M7.75,15.8612159 C8.30228475,15.8612159 8.73509138,16.3089312 8.71670065,16.8612159 L8.55020393,21.8612159 C8.53181321,22.4135007 8.1735497,22.8612159 7.75,22.8612159 C7.3264503,22.8612159 6.96818679,22.4135007 6.94979607,21.8612159 L6.78329935,16.8612159 C6.76490862,16.3089312 7.19771525,15.8612159 7.75,15.8612159 Z" id="Rectangle-Copy" fill-opacity="0.2" transform="translate(7.750000, 19.361216) scale(1, -1) rotate(-30.000000) translate(-7.750000, -19.361216) "></path>
            <path d="M19.3612159,12.75 C19.9135007,12.75 20.3463073,13.1977153 20.3279166,13.75 L20.1614199,18.75 C20.1430291,19.3022847 19.7847656,19.75 19.3612159,19.75 C18.9376662,19.75 18.5794027,19.3022847 18.561012,18.75 L18.3945153,13.75 C18.3761246,13.1977153 18.8089312,12.75 19.3612159,12.75 Z" id="Rectangle" fill-opacity="0.12" transform="translate(19.361216, 16.250000) rotate(120.000000) translate(-19.361216, -16.250000) "></path>
            <path d="M4.63878407,4.25 C5.19106882,4.25 5.62387544,4.69771525 5.60548472,5.25 L5.43898799,10.25 C5.42059727,10.8022847 5.06233377,11.25 4.63878407,11.25 C4.21523436,11.25 3.85697086,10.8022847 3.83858014,10.25 L3.67208341,5.25 C3.65369269,4.69771525 4.08649932,4.25 4.63878407,4.25 Z" id="Rectangle-Copy" fill-opacity="0.32" transform="translate(4.638784, 7.750000) scale(1, -1) rotate(-120.000000) translate(-4.638784, -7.750000) "></path>
        </g>
    </g>
</svg>