<?xml version="1.0" encoding="UTF-8"?>
<svg width="16px" height="16px" viewBox="0 0 16 16" version="1.1" xmlns="http://www.w3.org/2000/svg" xmlns:xlink="http://www.w3.org/1999/xlink">
    <!-- Generator: Sketch 61 (89581) - https://sketch.com -->
    <title>argvIcon</title>
    <desc>Created with Sketch.</desc>
    <g id="argv" stroke="none" stroke-width="1" fill="none" fill-rule="evenodd">
        <g id="Background" fill="#FFFFFF" fill-rule="nonzero" stroke="#94979C">
            <rect id="Rectangle" x="0.5" y="0.5" width="15" height="15" rx="2"></rect>
        </g>
        <path d="M7.39648438,11.4453125 C7.78710938,11.4453125 8.14453125,11.3671875 8.46875,11.2109375 C8.79296875,11.0546875 9.05859375,10.8320312 9.265625,10.5429688 L9.265625,10.5429688 L9.265625,11.2753906 L10.9707031,11.2753906 L10.9707031,7.53125 C10.9707031,6.4140625 10.7548828,5.63867188 10.3232422,5.20507812 C9.89160156,4.77148438 9.14257812,4.5546875 8.07617188,4.5546875 C7.63867188,4.5546875 7.22460938,4.59179688 6.83398438,4.66601562 C6.44335938,4.74023438 6.05859375,4.85546875 5.6796875,5.01171875 L5.6796875,5.01171875 L5.6796875,6.4765625 C6.09765625,6.25 6.49902344,6.08496094 6.88378906,5.98144531 C7.26855469,5.87792969 7.66601562,5.82617188 8.07617188,5.82617188 C8.46679688,5.82617188 8.76269531,5.89746094 8.96386719,6.04003906 C9.16503906,6.18261719 9.265625,6.39257812 9.265625,6.66992188 L9.265625,6.66992188 L9.265625,6.95703125 L8.07617188,6.95703125 C7.03710938,6.95703125 6.26953125,7.13964844 5.7734375,7.50488281 C5.27734375,7.87011719 5.02929688,8.43554688 5.02929688,9.20117188 C5.02929688,9.90820312 5.23730469,10.4589844 5.65332031,10.8535156 C6.06933594,11.2480469 6.65039062,11.4453125 7.39648438,11.4453125 Z M7.8359375,10.2558594 C7.53515625,10.2558594 7.296875,10.1679688 7.12109375,9.9921875 C6.9453125,9.81640625 6.85742188,9.58007812 6.85742188,9.28320312 C6.85742188,8.88476562 6.984375,8.60351562 7.23828125,8.43945312 C7.4921875,8.27539062 7.93945312,8.19335938 8.58007812,8.19335938 L8.58007812,8.19335938 L9.265625,8.19335938 L9.265625,8.31054688 C9.265625,8.92382812 9.140625,9.40136719 8.890625,9.74316406 C8.640625,10.0849609 8.2890625,10.2558594 7.8359375,10.2558594 Z" id="a" fill="#333333" fill-rule="nonzero"></path>
    </g>
</svg>