<?xml version="1.0" encoding="UTF-8"?>
<svg width="16px" height="16px" viewBox="0 0 16 16" version="1.1" xmlns="http://www.w3.org/2000/svg" xmlns:xlink="http://www.w3.org/1999/xlink">
    <!-- Generator: Sketch 53.2 (72643) - https://sketchapp.com -->
    <title>classIcon</title>
    <desc>Created with Sketch.</desc>
    <g id="class" stroke="none" stroke-width="1" fill="none" fill-rule="evenodd">
        <g id="Background" fill="#FFFFFF" fill-rule="nonzero" stroke="#94979C">
            <rect id="Rectangle" x="0.5" y="0.5" width="15" height="15" rx="2"></rect>
        </g>
        <path d="M10.7216797,12.1162109 C10.4482408,12.2568366 10.1611343,12.3623043 9.86035156,12.4326172 C9.55956881,12.50293 9.24316572,12.5380859 8.91113281,12.5380859 C7.73143941,12.5380859 6.83105779,12.1494179 6.20996094,11.3720703 C5.58886408,10.5947227 5.27832031,9.47168703 5.27832031,8.00292969 C5.27832031,6.53026607 5.58886408,5.40527732 6.20996094,4.62792969 C6.83105779,3.85058205 7.73143941,3.46191406 8.91113281,3.46191406 C9.24316572,3.46191406 9.56152191,3.49706996 9.86621094,3.56738281 C10.1709,3.63769566 10.4560534,3.74316336 10.7216797,3.88378906 L10.7216797,5.80566406 C10.4248032,5.5322252 10.1367201,5.33203188 9.85742188,5.20507812 C9.5781236,5.07812437 9.29004055,5.01464844 8.99316406,5.01464844 C8.3603484,5.01464844 7.88281411,5.26562249 7.56054688,5.76757812 C7.23827964,6.26953376 7.07714844,7.0146435 7.07714844,8.00292969 C7.07714844,8.98730961 7.23827964,9.73046624 7.56054688,10.2324219 C7.88281411,10.7343775 8.3603484,10.9853516 8.99316406,10.9853516 C9.29004055,10.9853516 9.5781236,10.9218756 9.85742188,10.7949219 C10.1367201,10.6679681 10.4248032,10.4677748 10.7216797,10.1943359 L10.7216797,12.1162109 Z" id="C" fill="#8674E0" fill-rule="nonzero"></path>
    </g>
</svg>