<?xml version="1.0" encoding="UTF-8"?>
<svg width="16px" height="16px" viewBox="0 0 16 16" version="1.1" xmlns="http://www.w3.org/2000/svg" xmlns:xlink="http://www.w3.org/1999/xlink">
    <!-- Generator: Sketch 61 (89581) - https://sketch.com -->
    <title>commandIcon</title>
    <desc>Created with Sketch.</desc>
    <g id="command" stroke="none" stroke-width="1" fill="none" fill-rule="evenodd">
        <g id="Background" fill="#FFFFFF" fill-rule="nonzero" stroke="#94979C">
            <rect id="Rectangle" x="0.5" y="0.5" width="15" height="15" rx="2"></rect>
        </g>
        <path d="M8.38671875,13.4404297 L8.39257812,11.6767578 C9.09570312,11.6416016 9.65917969,11.4189453 10.0830078,11.0087891 C10.5068359,10.5986328 10.71875,10.0732422 10.71875,9.43261719 C10.71875,8.76074219 10.5224609,8.22265625 10.1298828,7.81835938 C9.73730469,7.4140625 9.15625,7.15136719 8.38671875,7.03027344 L8.38671875,7.03027344 L8.38671875,5.23144531 C8.7421875,5.25488281 9.06835938,5.31347656 9.36523438,5.40722656 C9.66210938,5.50097656 9.93164062,5.62597656 10.1738281,5.78222656 L10.1738281,5.78222656 L10.1738281,4.28222656 C9.86132812,4.18457031 9.55566406,4.10839844 9.25683594,4.05371094 C8.95800781,3.99902344 8.66992188,3.96386719 8.39257812,3.94824219 L8.39257812,3.94824219 L8.38671875,2.55957031 L7.56054688,2.55957031 L7.56054688,3.94824219 C6.83789062,3.99511719 6.27734375,4.21191406 5.87890625,4.59863281 C5.48046875,4.98535156 5.28125,5.50488281 5.28125,6.15722656 C5.28125,6.77050781 5.46875,7.26367188 5.84375,7.63671875 C6.21875,8.00976562 6.79101562,8.27246094 7.56054688,8.42480469 L7.56054688,8.42480469 L7.56054688,10.3525391 C7.22851562,10.3486328 6.87402344,10.2822266 6.49707031,10.1533203 C6.12011719,10.0244141 5.73046875,9.84082031 5.328125,9.60253906 L5.328125,9.60253906 L5.328125,11.1376953 C5.73046875,11.3056641 6.1171875,11.4345703 6.48828125,11.5244141 C6.859375,11.6142578 7.21484375,11.6650391 7.5546875,11.6767578 L7.5546875,11.6767578 L7.56054688,13.4404297 L8.38671875,13.4404297 Z M7.56054688,6.88964844 C7.31835938,6.82324219 7.13574219,6.71582031 7.01269531,6.56738281 C6.88964844,6.41894531 6.828125,6.23339844 6.828125,6.01074219 C6.828125,5.78417969 6.88964844,5.60546875 7.01269531,5.47460938 C7.13574219,5.34375 7.31835938,5.26269531 7.56054688,5.23144531 L7.56054688,5.23144531 L7.56054688,6.88964844 Z M8.38671875,10.3525391 L8.38671875,8.58300781 C8.63671875,8.62988281 8.82910156,8.73046875 8.96386719,8.88476562 C9.09863281,9.0390625 9.16601562,9.23730469 9.16601562,9.47949219 C9.16601562,9.71777344 9.09765625,9.9140625 8.9609375,10.0683594 C8.82421875,10.2226562 8.6328125,10.3173828 8.38671875,10.3525391 L8.38671875,10.3525391 Z" id="$" fill="#76A16C" fill-rule="nonzero"></path>
    </g>
</svg>