<?xml version="1.0" encoding="UTF-8"?>
<svg width="16px" height="16px" viewBox="0 0 16 16" version="1.1" xmlns="http://www.w3.org/2000/svg" xmlns:xlink="http://www.w3.org/1999/xlink">
    <!-- Generator: Sketch 53.2 (72643) - https://sketchapp.com -->
    <title>constructorIcon</title>
    <desc>Created with Sketch.</desc>
    <g id="constructor" stroke="none" stroke-width="1" fill="none" fill-rule="evenodd">
        <g id="Background" fill="#FFFFFF" fill-rule="nonzero" stroke="#94979C">
            <rect id="Rectangle" x="0.5" y="0.5" width="15" height="15" rx="2"></rect>
        </g>
        <path d="M10.2324219,11.3984375 C9.94335793,11.5664071 9.63281416,11.6923824 9.30078125,11.7763672 C8.96874834,11.860352 8.61133004,11.9023438 8.22851562,11.9023438 C7.21679182,11.9023438 6.4257841,11.5976593 5.85546875,10.9882812 C5.2851534,10.3789032 5,9.53516164 5,8.45703125 C5,7.37499459 5.2871065,6.52832337 5.86132812,5.91699219 C6.43554975,5.30566101 7.22851057,5 8.24023438,5 C8.59179863,5 8.93066243,5.04101521 9.25683594,5.12304688 C9.58300944,5.20507854 9.9082015,5.33203039 10.2324219,5.50390625 L10.2324219,7.07421875 C9.98242062,6.85937393 9.70800931,6.69433651 9.40917969,6.57910156 C9.11035007,6.46386661 8.80078285,6.40625 8.48046875,6.40625 C7.92187221,6.40625 7.492189,6.5839826 7.19140625,6.93945312 C6.8906235,7.29492365 6.74023438,7.80077797 6.74023438,8.45703125 C6.74023438,9.11328453 6.8906235,9.61718574 7.19140625,9.96875 C7.492189,10.3203143 7.92187221,10.4960938 8.48046875,10.4960938 C8.81250166,10.4960938 9.12304543,10.4404302 9.41210938,10.3291016 C9.70117332,10.2177729 9.97460809,10.0488293 10.2324219,9.82226562 L10.2324219,11.3984375 Z" id="c" fill="#333333" fill-rule="nonzero"></path>
    </g>
</svg>