<?xml version="1.0" encoding="UTF-8"?>
<svg width="16px" height="16px" viewBox="0 0 16 16" version="1.1" xmlns="http://www.w3.org/2000/svg" xmlns:xlink="http://www.w3.org/1999/xlink">
    <!-- Generator: Sketch 53.2 (72643) - https://sketchapp.com -->
    <title>functionIcon</title>
    <desc>Created with Sketch.</desc>
    <g id="function" stroke="none" stroke-width="1" fill="none" fill-rule="evenodd">
        <g id="Background" fill="#FFFFFF" fill-rule="nonzero" stroke="#94979C">
            <rect id="Rectangle" x="0.5" y="0.5" width="15" height="15" rx="2"></rect>
        </g>
        <path d="M8.62402344,5.55078125 L8.53027344,5.99609375 L10.5458984,5.99609375 L10.2939453,7.31445312 L8.27832031,7.31445312 L7.25878906,12.5585938 L5.54199219,12.5585938 L6.56152344,7.31445312 L4.96191406,7.31445312 L5.21386719,5.99609375 L6.81347656,5.99609375 L6.90722656,5.5390625 C7.07128988,4.71483963 7.33300602,4.15918112 7.69238281,3.87207031 C8.05175961,3.5849595 8.69823752,3.44140625 9.63183594,3.44140625 L11.0380859,3.44140625 L10.7861328,4.75976562 L9.43847656,4.75976562 C9.18456904,4.75976562 9.00097713,4.81347603 8.88769531,4.92089844 C8.7744135,5.02832085 8.68652375,5.23827969 8.62402344,5.55078125 Z" id="f" fill="#76A16C" fill-rule="nonzero"></path>
    </g>
</svg>