<?xml version="1.0" encoding="UTF-8"?>
<svg width="16px" height="16px" viewBox="0 0 16 16" version="1.1" xmlns="http://www.w3.org/2000/svg" xmlns:xlink="http://www.w3.org/1999/xlink">
    <!-- Generator: Sketch 53.2 (72643) - https://sketchapp.com -->
    <title>protocolIcon</title>
    <desc>Created with Sketch.</desc>
    <g id="protocol" stroke="none" stroke-width="1" fill="none" fill-rule="evenodd">
        <g id="Background" fill="#FFFFFF" fill-rule="nonzero" stroke="#94979C">
            <rect id="Rectangle" x="0.5" y="0.5" width="15" height="15" rx="2"></rect>
        </g>
        <path d="M4.75811278,5.07910156 L4.75811278,7.64550781 L5.46709715,7.64550781 C6.03350623,7.64550781 6.4309632,7.54980564 6.65947996,7.35839844 C6.88799673,7.16699123 7.0022534,6.8349633 7.0022534,6.36230469 C7.0022534,5.88964607 6.88799673,5.55761814 6.65947996,5.36621094 C6.4309632,5.17480373 6.03350623,5.07910156 5.46709715,5.07910156 L4.75811278,5.07910156 Z M3.02959715,3.62597656 L5.40264403,3.62597656 C6.60968131,3.62597656 7.47783669,3.84081816 8.00713621,4.27050781 C8.53643573,4.70019746 8.80108153,5.39745611 8.80108153,6.36230469 C8.80108153,7.32715326 8.53643573,8.02441191 8.00713621,8.45410156 C7.47783669,8.88379121 6.60968131,9.09863281 5.40264403,9.09863281 L4.75811278,9.09863281 L4.75811278,12.3740234 L3.02959715,12.3740234 L3.02959715,3.62597656 Z M12.9704028,8.63933359 C12.8230407,8.50425166 12.6503534,8.40294173 12.4523355,8.33540076 C12.2543177,8.26785979 12.0371153,8.23408981 11.8007219,8.23408981 C11.5152078,8.23408981 11.2657705,8.28397728 11.0524025,8.38375371 C10.8390344,8.48353014 10.674022,8.62858754 10.5573603,8.81893027 C10.4836793,8.93559194 10.4322568,9.07681185 10.4030914,9.24259422 C10.373926,9.4083766 10.3593435,9.66011643 10.3593435,9.99782127 L10.3593435,12.3740234 L9.0100659,12.3740234 L9.0100659,7.21637532 L10.3593435,7.21637532 L10.3593435,8.01765279 C10.4913554,7.72292857 10.6939752,7.49498122 10.9672092,7.33380391 C11.2404431,7.1726266 11.5597229,7.09203916 11.9250581,7.09203916 C12.1092607,7.09203916 12.2896231,7.11429664 12.4661506,7.15881228 C12.6426782,7.20332792 12.8107606,7.26856537 12.9704028,7.35452661 L12.9704028,8.63933359 Z" id="Pr" fill="#8674E0" fill-rule="nonzero"></path>
    </g>
</svg>