<?xml version="1.0" encoding="UTF-8"?>
<svg width="16px" height="16px" viewBox="0 0 16 16" version="1.1" xmlns="http://www.w3.org/2000/svg" xmlns:xlink="http://www.w3.org/1999/xlink">
    <!-- Generator: Sketch 53.2 (72643) - https://sketchapp.com -->
    <title>specpropertyIcon</title>
    <desc>Created with Sketch.</desc>
    <g id="specproperty" stroke="none" stroke-width="1" fill="none" fill-rule="evenodd">
        <g id="Background" fill="#FFFFFF" fill-rule="nonzero" stroke="#94979C">
            <rect id="Rectangle" x="0.5" y="0.5" width="15" height="15" rx="2"></rect>
        </g>
        <path d="M6.84277344,5.07910156 L6.84277344,7.64550781 L7.55175781,7.64550781 C8.11816689,7.64550781 8.51562386,7.54980564 8.74414062,7.35839844 C8.97265739,7.16699123 9.08691406,6.8349633 9.08691406,6.36230469 C9.08691406,5.88964607 8.97265739,5.55761814 8.74414062,5.36621094 C8.51562386,5.17480373 8.11816689,5.07910156 7.55175781,5.07910156 L6.84277344,5.07910156 Z M5.11425781,3.62597656 L7.48730469,3.62597656 C8.69434197,3.62597656 9.56249735,3.84081816 10.0917969,4.27050781 C10.6210964,4.70019746 10.8857422,5.39745611 10.8857422,6.36230469 C10.8857422,7.32715326 10.6210964,8.02441191 10.0917969,8.45410156 C9.56249735,8.88379121 8.69434197,9.09863281 7.48730469,9.09863281 L6.84277344,9.09863281 L6.84277344,12.3740234 L5.11425781,12.3740234 L5.11425781,3.62597656 Z" id="P" fill="#333333" fill-rule="nonzero"></path>
    </g>
</svg>